<svg width="20" height="17" viewBox="0 0 20 17" fill="none" xmlns="http://www.w3.org/2000/svg">
<g clip-path="url(#clip0_135_295)">
<path d="M9.20568 11.8632L7.27882 15.6803L5.86168 12.8712H3.14282L5.01711 9.21177C4.428 8.30525 4.09734 7.25519 4.06074 6.17468C4.02414 5.09417 4.28299 4.02414 4.80941 3.07983C5.33583 2.13551 6.10987 1.35269 7.04819 0.815663C7.98651 0.278633 9.05355 0.00773962 10.1344 0.0321558C11.2153 0.0565719 12.269 0.375372 13.1821 0.954226C14.0952 1.53308 14.8331 2.35006 15.3163 3.31718C15.7996 4.2843 16.0099 5.36492 15.9245 6.44267C15.8391 7.52043 15.4614 8.55449 14.832 9.43349L16.592 12.8712H13.8743L12.456 15.6803L10.544 11.8918C10.0982 11.932 9.64932 11.9225 9.20568 11.8632ZM8.06168 11.5923C7.21237 11.2989 6.44065 10.8167 5.80454 10.1821L5.01254 11.7283H6.56339L7.27882 13.1443L8.06168 11.5923ZM11.7097 11.6655L12.456 13.1443L13.1703 11.7283H14.7223L14.0171 10.3523C13.3571 10.9591 12.5682 11.4084 11.7097 11.6666V11.6655ZM9.99997 10.5443C11.2124 10.5443 12.3751 10.0627 13.2325 9.2054C14.0898 8.34809 14.5714 7.18533 14.5714 5.97291C14.5714 4.7605 14.0898 3.59774 13.2325 2.74043C12.3751 1.88312 11.2124 1.40149 9.99997 1.40149C8.78755 1.40149 7.62479 1.88312 6.76748 2.74043C5.91017 3.59774 5.42854 4.7605 5.42854 5.97291C5.42854 7.18533 5.91017 8.34809 6.76748 9.2054C7.62479 10.0627 8.78755 10.5443 9.99997 10.5443Z" fill="black" fill-opacity="0.55"/>
</g>
<defs>
<clipPath id="clip0_135_295">
<rect width="20" height="16" fill="white" transform="translate(0 0.0300293)"/>
</clipPath>
</defs>
</svg>
