<svg width="39" height="23" viewBox="0 0 39 23" fill="none" xmlns="http://www.w3.org/2000/svg">
<g clip-path="url(#clip0_135_382)">
<path fill-rule="evenodd" clip-rule="evenodd" d="M38.784 19.1416C38.784 20.6089 37.3453 21.8078 35.5926 21.8078H3.66423C1.90582 21.8078 0.469971 20.6089 0.469971 19.1416V3.12752C0.469971 1.65741 1.90582 0.458496 3.66423 0.458496H35.5926C37.3453 0.458496 38.784 1.65741 38.784 3.12752V19.1416Z" fill="#F5F5F5"/>
<path d="M35.5926 0.458496H3.66423C1.90582 0.458496 0.469971 1.65741 0.469971 3.12752V19.1416C0.469971 20.6089 1.90582 21.8078 3.66423 21.8078H35.5926C37.3453 21.8078 38.784 20.6089 38.784 19.1416V3.12752C38.784 1.65741 37.3453 0.458496 35.5926 0.458496ZM35.5926 0.9923C36.9999 0.9923 38.1445 1.94858 38.1445 3.12752V19.1416C38.1445 20.3177 36.9999 21.274 35.5926 21.274H3.66423C2.25122 21.274 1.10939 20.3177 1.10939 19.1416V3.12752C1.10939 1.94858 2.25122 0.9923 3.66423 0.9923H35.5926Z" fill="#D0D0D0"/>
<path fill-rule="evenodd" clip-rule="evenodd" d="M9.302 5.76514H10.5694V16.4983H9.302V5.76514ZM17.0664 5.76514H18.331V16.4983H17.0664V5.76514ZM23.5235 5.76514H24.7852V16.4983H23.5235V5.76514ZM26.0897 5.76514H27.3514V16.4983H26.0897V5.76514ZM28.6874 5.76514H29.9491V16.4983H28.6874V5.76514ZM19.6355 5.76514H22.2018V16.4983H19.6355V5.76514ZM11.8854 5.76514H15.7476V16.4983H11.8854V5.76514Z" fill="black"/>
<path fill-rule="evenodd" clip-rule="evenodd" d="M5.89941 11.6969H33.3575V13.2955H5.89941V11.6969Z" fill="#773CBC"/>
</g>
<defs>
<clipPath id="clip0_135_382">
<rect width="38" height="21.9231" fill="white" transform="translate(0.469971 0.458496)"/>
</clipPath>
</defs>
</svg>
