<svg width="35" height="36" viewBox="0 0 35 36" fill="none" xmlns="http://www.w3.org/2000/svg">
<path d="M0.012657 19.375C0.012657 16.0627 -0.0196372 12.7498 0.0207306 9.4375C0.0707867 5.30803 1.6193 3.75995 5.69645 3.71952C7.30309 3.70389 8.93234 4.01976 9.24667 1.60169C9.37746 0.594791 10.666 0.688042 11.5412 0.685886C18.4242 0.666481 25.3077 0.69505 32.1907 0.660013C34.0535 0.650311 35.0159 1.33919 34.9976 3.32657C34.9508 8.33951 34.9508 13.3535 35.0003 18.3665C35.0191 20.2848 34.2204 21.1381 32.2881 21.1284C25.4051 21.0934 18.5216 21.0896 11.6381 21.1327C9.7004 21.1446 8.91888 20.356 8.98024 18.3939C9.0782 15.2638 8.92857 12.1256 9.02276 8.9955C9.08304 6.98655 8.03994 6.54401 6.34933 6.64212C4.76368 6.73375 2.93906 6.37476 2.94336 8.89147C2.95628 16.0535 2.94874 23.215 2.95574 30.377C2.95736 31.8987 3.71896 32.7164 5.25617 32.7223C9.01038 32.7358 12.7651 32.7132 16.5193 32.7439C18.098 32.7568 18.8047 31.9849 18.8381 30.4622C18.8731 28.8527 18.8887 27.241 18.9855 25.6347C19.0313 24.8763 19.3758 24.2461 20.2892 24.2257C21.3484 24.2019 21.6875 24.8698 21.6923 25.777C21.7031 27.7455 21.8151 29.727 21.6342 31.6798C21.4146 34.0505 19.9054 35.48 17.5646 35.549C13.1898 35.6783 8.80208 35.7225 4.43159 35.5301C1.62414 35.4061 0.208037 33.6516 0.0788603 30.3851C-0.0659257 26.7203 0.0454895 23.0457 0.0454895 19.3755C0.0341865 19.3755 0.0234218 19.375 0.012657 19.375ZM22.0745 9.3863C22.0745 9.3836 22.0745 9.38091 22.0745 9.37821C20.646 9.37821 19.2175 9.35503 17.7896 9.38198C10.5761 9.51943 11.6542 8.17834 11.497 15.8562C11.4577 17.7843 12.2764 18.3303 14.0591 18.2953C17.985 18.2171 21.9152 18.3363 25.8416 18.2597C33.0239 18.1196 32.0421 19.7539 32.1309 11.5478C32.1487 9.89621 31.3779 9.34425 29.8402 9.37336C27.2523 9.42133 24.6629 9.3863 22.0745 9.3863ZM22.075 3.52224C19.3198 3.52224 16.564 3.512 13.8088 3.52709C12.7323 3.53302 11.5396 3.4527 11.5837 5.07247C11.6224 6.4982 12.6962 6.4858 13.6871 6.48849C19.1088 6.50143 24.531 6.50089 29.9527 6.48849C30.9484 6.48634 32.0174 6.48041 32.0475 5.06062C32.0819 3.44084 30.8774 3.53571 29.8074 3.52817C27.2303 3.50984 24.6527 3.52224 22.075 3.52224Z" fill="black"/>
</svg>
