<svg width="40" height="26" viewBox="0 0 40 26" fill="none" xmlns="http://www.w3.org/2000/svg">
<g id="card-pix.svg" clip-path="url(#clip0_188_716)">
<path id="Vector" fill-rule="evenodd" clip-rule="evenodd" d="M39.5 22.75C39.5 24.5375 38.0375 26 36.25 26H3.75C1.9625 26 0.5 24.5375 0.5 22.75V3.25C0.5 1.4625 1.9625 0 3.75 0H36.25C38.0375 0 39.5 1.4625 39.5 3.25V22.75Z" fill="white"/>
<path id="Vector_2" d="M36.25 0H3.75C1.9625 0 0.5 1.4625 0.5 3.25V22.75C0.5 24.5375 1.9625 26 3.75 26H36.25C38.0375 26 39.5 24.5375 39.5 22.75V3.25C39.5 1.4625 38.0375 0 36.25 0ZM36.25 0.65C37.6839 0.65 38.85 1.8161 38.85 3.25V22.75C38.85 24.1839 37.6839 25.35 36.25 25.35H3.75C2.3161 25.35 1.15 24.1839 1.15 22.75V3.25C1.15 1.8161 2.3161 0.65 3.75 0.65H36.25Z" fill="#B3B3B3"/>
<path id="Vector_3" d="M16.5813 16.7106C16.8515 16.7116 17.1192 16.6588 17.3688 16.5555C17.6184 16.4521 17.8451 16.3002 18.0355 16.1085L20.1347 14.0094C20.2092 13.9384 20.3081 13.8987 20.4111 13.8987C20.514 13.8987 20.613 13.9384 20.6875 14.0094L22.7948 16.1172C22.9856 16.3086 23.2124 16.4603 23.4622 16.5635C23.7119 16.6667 23.9797 16.7194 24.2499 16.7184H24.6639L22.0037 19.3773C21.8064 19.575 21.572 19.7319 21.314 19.839C21.0559 19.946 20.7793 20.0012 20.5 20.0012C20.2206 20.0012 19.944 19.946 19.6859 19.839C19.4279 19.7319 19.1935 19.575 18.9962 19.3773L16.3252 16.7106H16.5813ZM24.2499 9.28252C23.9798 9.2817 23.7122 9.33446 23.4626 9.43773C23.2129 9.54101 22.9863 9.69275 22.7957 9.88419L20.6914 11.9929C20.6181 12.066 20.5187 12.1071 20.4152 12.1071C20.3116 12.1071 20.2123 12.066 20.139 11.9929L18.0399 9.89327C17.8494 9.70158 17.6228 9.54964 17.3732 9.44628C17.1235 9.34292 16.8558 9.29019 16.5856 9.29117H16.3252L18.9962 6.62279C19.3951 6.22402 19.936 6 20.5 6C21.064 6 21.6049 6.22402 22.0037 6.62279L24.6639 9.28208L24.2499 9.28252Z" fill="#4AB7A8"/>
<path id="Vector_4" d="M14.1231 11.4967L15.7115 9.908H16.5813C16.9628 9.90843 17.3283 10.0594 17.5991 10.3275L19.6982 12.4267C19.7918 12.5208 19.903 12.5954 20.0255 12.6463C20.1479 12.6973 20.2793 12.7235 20.4119 12.7235C20.5446 12.7235 20.6759 12.6973 20.7984 12.6463C20.9209 12.5954 21.0321 12.5208 21.1256 12.4267L23.233 10.3193C23.5038 10.0509 23.8695 9.90011 24.2508 9.89978H25.282L26.8772 11.495C27.276 11.8938 27.5 12.4347 27.5 12.9987C27.5 13.5627 27.276 14.1036 26.8772 14.5025L25.282 16.0977H24.2499C23.8689 16.0977 23.5029 15.9463 23.2321 15.6782L21.1252 13.5699C20.933 13.3863 20.6773 13.2839 20.4115 13.2839C20.1457 13.2839 19.8901 13.3863 19.6978 13.5699L17.5987 15.6691C17.3279 15.9372 16.9624 16.0886 16.5809 16.0886H15.7115L14.1231 14.5042C13.9256 14.3068 13.7689 14.0724 13.662 13.8143C13.555 13.5563 13.5 13.2798 13.5 13.0005C13.5 12.7212 13.555 12.4446 13.662 12.1866C13.7689 11.9286 13.9256 11.6942 14.1231 11.4967Z" fill="#4AB7A8"/>
</g>
<defs>
<clipPath id="clip0_188_716">
<rect width="39" height="26" fill="white" transform="translate(0.5)"/>
</clipPath>
</defs>
</svg>
