<svg width="40" height="26" viewBox="0 0 40 26" fill="none" xmlns="http://www.w3.org/2000/svg">
<g id="card-hiper.svg" clip-path="url(#clip0_188_706)">
<path id="Vector" fill-rule="evenodd" clip-rule="evenodd" d="M39.5 22.75C39.5 24.5375 38.0375 26 36.25 26H3.75C1.9625 26 0.5 24.5375 0.5 22.75V3.25C0.5 1.4625 1.9625 0 3.75 0H36.25C38.0375 0 39.5 1.4625 39.5 3.25V22.75Z" fill="white"/>
<path id="Vector_2" d="M36.25 0H3.75C1.9625 0 0.5 1.4625 0.5 3.25V22.75C0.5 24.5375 1.9625 26 3.75 26H36.25C38.0375 26 39.5 24.5375 39.5 22.75V3.25C39.5 1.4625 38.0375 0 36.25 0ZM36.25 0.65C37.6839 0.65 38.85 1.8161 38.85 3.25V22.75C38.85 24.1839 37.6839 25.35 36.25 25.35H3.75C2.3161 25.35 1.15 24.1839 1.15 22.75V3.25C1.15 1.8161 2.3161 0.65 3.75 0.65H36.25Z" fill="#B3B3B3"/>
<path id="Vector_3" fill-rule="evenodd" clip-rule="evenodd" d="M23.5471 25.404C19.9882 25.404 16.4286 25.4033 12.8697 25.4061C12.7315 25.4061 12.6682 25.3854 12.6325 25.2245C12.4667 24.4742 12.279 23.728 12.0954 22.9819C11.9351 22.3327 11.7666 21.6855 11.6085 21.0363C11.4654 20.4497 11.3334 19.8604 11.191 19.2731C11.0631 18.7428 10.9256 18.2147 10.797 17.6851C10.6684 17.1549 10.5459 16.6233 10.4187 16.0931C10.3087 15.6358 10.1952 15.1798 10.0838 14.7232C9.95383 14.1902 9.82935 13.6552 9.69318 13.1243C9.57971 12.6834 9.49169 12.2426 9.50063 11.7839C9.51575 10.9807 9.76951 10.2654 10.2674 9.63416C10.83 8.91963 11.5651 8.46849 12.4351 8.23811C13.0678 8.07031 13.7073 7.93139 14.3435 7.77666C15.0085 7.61505 15.6728 7.44725 16.3385 7.28839C17.0035 7.12952 17.6706 6.98167 18.3356 6.82281C19.0006 6.66395 19.6629 6.49477 20.3279 6.33522C20.92 6.19286 21.5142 6.05945 22.107 5.91847C22.6524 5.78849 23.1957 5.64957 23.741 5.52029C24.4067 5.36211 25.0738 5.2115 25.7395 5.05264C26.2113 4.93986 26.6789 4.80851 27.1534 4.70535C27.6273 4.60288 28.1052 4.57262 28.5935 4.63452C29.264 4.7191 29.8747 4.94536 30.4228 5.33254C31.0342 5.76373 31.4915 6.32628 31.7817 7.02018C31.9818 7.49882 32.063 8.00979 32.1902 8.50838C32.3284 9.05098 32.4577 9.59634 32.5884 10.1403C32.7149 10.6698 32.836 11.2007 32.9632 11.7296C33.0925 12.2687 33.228 12.8072 33.3579 13.3464C33.4865 13.8814 33.6103 14.4178 33.7382 14.9536C33.8496 15.4212 33.9638 15.8888 34.0773 16.3558C34.1742 16.7554 34.2719 17.1542 34.3689 17.5538C34.4727 17.9822 34.5786 18.41 34.6804 18.8384C34.7904 19.3006 34.8957 19.7641 35.0064 20.2262C35.1357 20.7668 35.2725 21.3059 35.3997 21.8465C35.6363 22.8505 35.5827 23.8209 35.0456 24.7307C34.9142 24.9529 34.7347 25.1337 34.5408 25.3001C34.4569 25.3724 34.3613 25.4074 34.2416 25.4074C30.6759 25.4033 27.1115 25.404 23.5471 25.404Z" fill="#FF7900"/>
<path id="Vector_4" fill-rule="evenodd" clip-rule="evenodd" d="M12.5232 17.2375C12.5232 16.2569 12.5253 15.2762 12.5205 14.2948C12.5198 14.1731 12.5487 14.1291 12.678 14.1325C13.048 14.1408 13.4186 14.1401 13.7886 14.1332C13.9083 14.1311 13.9427 14.1676 13.942 14.2859C13.9372 14.9715 13.9427 15.6572 13.9372 16.3428C13.9358 16.4728 13.9688 16.5148 14.1043 16.5134C14.77 16.5065 15.4357 16.5072 16.1007 16.5127C16.221 16.5134 16.2527 16.4783 16.252 16.3607C16.2465 15.6702 16.252 14.9798 16.2472 14.2893C16.2465 14.1752 16.2719 14.1311 16.395 14.1332C16.7705 14.1408 17.146 14.1428 17.5208 14.1325C17.6645 14.1284 17.6673 14.1979 17.6673 14.3058C17.6652 16.0224 17.6652 17.7389 17.6652 19.4554C17.6652 19.7153 17.6611 19.976 17.6673 20.2359C17.67 20.3364 17.6343 20.3645 17.538 20.3639C17.1529 20.3597 16.7671 20.359 16.382 20.3639C16.2781 20.3652 16.2465 20.3329 16.2465 20.2277C16.2506 19.4568 16.2458 18.6865 16.2513 17.9156C16.252 17.7836 16.2149 17.7458 16.0821 17.7471C15.4219 17.754 14.761 17.7526 14.1008 17.7478C13.977 17.7471 13.9365 17.7843 13.9372 17.9101C13.942 18.6755 13.9365 19.4416 13.942 20.2071C13.9427 20.3357 13.9028 20.3666 13.781 20.3645C13.4111 20.357 13.0404 20.3577 12.6704 20.3639C12.5535 20.3659 12.5205 20.3288 12.5205 20.2105C12.5253 19.2195 12.5232 18.2285 12.5232 17.2375Z" fill="white"/>
<path id="Vector_5" fill-rule="evenodd" clip-rule="evenodd" d="M23.3393 15.7944C22.776 15.8164 22.2905 16.0186 21.9288 16.522C21.922 16.4682 21.9147 16.4177 21.9078 16.3696C21.8913 16.2558 21.8768 16.1551 21.8758 16.055C21.8738 15.9374 21.8366 15.8975 21.7183 15.9003C21.5464 15.9045 21.3747 15.9038 21.2029 15.9031C21.0944 15.9027 20.9859 15.9022 20.8773 15.903C20.7516 15.9041 20.6942 15.8926 20.668 15.9161C20.6421 15.9393 20.6469 15.9968 20.6462 16.1348C20.6462 16.1451 20.6462 16.1547 20.6469 16.1651C20.6896 16.9739 20.6902 17.7837 20.6909 18.5933C20.6911 18.8141 20.6912 19.0349 20.6923 19.2556C20.693 19.3794 20.6379 19.3925 20.5458 19.3657C20.4151 19.3278 20.2948 19.2687 20.1951 19.1724C19.9241 18.9111 19.8402 18.572 19.8347 18.2172C19.8242 17.5619 19.8281 16.9072 19.832 16.252C19.8324 16.1763 19.8329 16.1005 19.8333 16.0248C19.834 15.914 19.8044 15.8783 19.6903 15.8803C19.31 15.8872 18.9297 15.8865 18.5494 15.8803C18.44 15.8783 18.4153 15.9175 18.416 16.0186C18.4186 16.5048 18.4184 16.9914 18.4182 17.4781C18.4181 17.6172 18.418 17.7563 18.418 17.8953V17.9167C18.418 18.1901 18.4179 18.4622 18.4682 18.733C18.5851 19.3636 18.8712 19.8773 19.453 20.1909C19.7652 20.3594 20.1029 20.4426 20.4557 20.4646C20.5724 20.4718 20.6309 20.4749 20.6602 20.5057C20.6895 20.5367 20.6895 20.5955 20.6895 20.7143C20.6895 20.8358 20.6898 20.9573 20.6901 21.0788C20.6909 21.4027 20.6918 21.7264 20.6868 22.0505C20.6847 22.1653 20.7198 22.1935 20.8305 22.1915C21.2012 22.1846 21.5718 22.1853 21.9418 22.1908C22.0484 22.1928 22.0787 22.1578 22.0773 22.0539C22.0733 21.6871 22.0741 21.3198 22.0748 20.9528C22.075 20.8795 22.0751 20.8061 22.0752 20.7328C22.0756 20.593 22.0692 20.5301 22.0975 20.5019C22.1263 20.4731 22.1913 20.4805 22.3366 20.4791C22.4333 20.4781 22.5301 20.4789 22.6269 20.4798C22.8601 20.482 23.0935 20.4841 23.3262 20.4598C23.8564 20.4048 24.3413 20.2411 24.7195 19.8443C25.0303 19.5176 25.1871 19.1174 25.2504 18.678C25.3391 18.0645 25.3137 17.4635 25.051 16.8878C24.7326 16.1898 24.0847 15.7648 23.3393 15.7944ZM22.0742 18.7525C22.074 18.6713 22.0738 18.5871 22.0738 18.4987C22.0781 18.4096 22.0764 18.3137 22.0746 18.2137C22.0718 18.0554 22.0687 17.8868 22.089 17.7182C22.1419 17.2739 22.4239 16.9583 22.8166 16.8998C23.2333 16.8379 23.573 17.0284 23.7491 17.461C23.9437 17.9403 23.9341 18.4279 23.714 18.8997C23.5517 19.249 23.2533 19.401 22.8798 19.4086C22.7473 19.4114 22.6143 19.4065 22.4812 19.4017C22.3844 19.3982 22.2875 19.3947 22.1908 19.3941C22.0945 19.3934 22.0725 19.3487 22.0732 19.2642C22.0751 19.0987 22.0747 18.9329 22.0742 18.7525Z" fill="white"/>
<path id="Vector_6" fill-rule="evenodd" clip-rule="evenodd" d="M28.0872 18.5733C28.196 18.5732 28.3048 18.5731 28.4136 18.5731C28.5226 18.5731 28.6315 18.5732 28.7404 18.5732C29.0667 18.5734 29.3929 18.5735 29.7182 18.5725C29.7236 18.5725 29.7289 18.5725 29.7342 18.5726C29.7972 18.5733 29.8522 18.5738 29.8675 18.4755C29.939 18.0127 29.9032 17.5581 29.7657 17.1138C29.624 16.6558 29.3627 16.281 28.9425 16.0328C28.5732 15.8147 28.1674 15.759 27.7459 15.7824C26.9137 15.8278 26.2976 16.2143 25.9131 16.955C25.6188 17.523 25.5734 18.1282 25.6876 18.7471C25.7942 19.3228 26.0796 19.7863 26.5857 20.0992C27.0018 20.3557 27.4598 20.4506 27.9426 20.4595C28.481 20.4699 29.0071 20.4004 29.5195 20.2305C29.6041 20.2023 29.6591 20.1666 29.6364 20.0607C29.5855 19.822 29.5401 19.582 29.4947 19.342C29.4782 19.2547 29.4473 19.2354 29.351 19.2602C28.8462 19.3908 28.3339 19.4775 27.8126 19.3681C27.4343 19.2884 27.1221 19.1206 26.9935 18.7148C26.9523 18.5835 27.0011 18.5711 27.1077 18.5718C27.4342 18.5738 27.7607 18.5736 28.0872 18.5733ZM27.9866 17.6068C27.9195 17.6069 27.8523 17.607 27.7851 17.607H27.0651C27.0623 17.607 27.0594 17.607 27.0566 17.607C27.0016 17.6073 26.9477 17.6075 26.9654 17.5231C27.0383 17.1738 27.1889 16.8643 27.5479 16.7494C28.0781 16.5796 28.5492 16.8657 28.5987 17.5101C28.6056 17.5967 28.5602 17.6084 28.49 17.6077C28.3221 17.6062 28.1544 17.6065 27.9866 17.6068Z" fill="white"/>
<path id="Vector_7" fill-rule="evenodd" clip-rule="evenodd" d="M30.396 18.4411C30.396 18.0361 30.3994 17.631 30.3953 17.2253C30.3912 16.8154 30.3829 16.4062 30.3685 15.9963C30.3643 15.8925 30.398 15.8705 30.4929 15.8725C30.8079 15.8774 31.1236 15.8801 31.4385 15.8712C31.5472 15.8684 31.5781 15.9111 31.5809 16.0053C31.5857 16.1848 31.5926 16.3649 31.5995 16.5444C31.6008 16.5781 31.5946 16.6249 31.6352 16.6338C31.6813 16.6442 31.684 16.5946 31.6978 16.5651C31.8855 16.1738 32.1813 15.9104 32.607 15.8038C32.7644 15.7646 32.9254 15.7811 33.0849 15.7838C33.1688 15.7852 33.1599 15.8499 33.1599 15.9028C33.1606 16.2632 33.1578 16.6228 33.1626 16.9832C33.164 17.0864 33.1289 17.1159 33.0299 17.0974C32.7837 17.0499 32.5416 17.0657 32.3112 17.1696C31.9206 17.3449 31.801 17.6785 31.7996 18.0739C31.7975 18.7843 31.7948 19.4947 31.8023 20.2051C31.8037 20.342 31.7611 20.3729 31.6325 20.3702C31.2673 20.3619 30.9021 20.3633 30.5369 20.3695C30.4255 20.3715 30.3918 20.3385 30.3925 20.2257C30.3987 19.6316 30.396 19.036 30.396 18.4411Z" fill="white"/>
<path id="Vector_8" fill-rule="evenodd" clip-rule="evenodd" d="M19.1259 15.3349C18.6658 15.3583 18.3722 15.0261 18.377 14.6279C18.3825 14.2132 18.6837 13.9244 19.1231 13.9237C19.5825 13.923 19.8824 14.2077 19.881 14.6444C19.8803 15.055 19.5743 15.3349 19.1259 15.3349Z" fill="#FFE701"/>
</g>
<defs>
<clipPath id="clip0_188_706">
<rect width="39" height="26" fill="white" transform="translate(0.5)"/>
</clipPath>
</defs>
</svg>
