<svg width="40" height="26" viewBox="0 0 40 26" fill="none" xmlns="http://www.w3.org/2000/svg">
<g id="card-visa.svg" clip-path="url(#clip0_188_634)">
<path id="Vector" fill-rule="evenodd" clip-rule="evenodd" d="M39.5 22.75C39.5 24.5375 38.0375 26 36.25 26H3.75C1.9625 26 0.5 24.5375 0.5 22.75V3.25C0.5 1.4625 1.9625 0 3.75 0H36.25C38.0375 0 39.5 1.4625 39.5 3.25V22.75Z" fill="white"/>
<path id="Vector_2" d="M36.25 0H3.75C1.9625 0 0.5 1.4625 0.5 3.25V22.75C0.5 24.5375 1.9625 26 3.75 26H36.25C38.0375 26 39.5 24.5375 39.5 22.75V3.25C39.5 1.4625 38.0375 0 36.25 0ZM36.25 0.65C37.6839 0.65 38.85 1.8161 38.85 3.25V22.75C38.85 24.1839 37.6839 25.35 36.25 25.35H3.75C2.3161 25.35 1.15 24.1839 1.15 22.75V3.25C1.15 1.8161 2.3161 0.65 3.75 0.65H36.25Z" fill="#B3B3B3"/>
<path id="Vector_3" fill-rule="evenodd" clip-rule="evenodd" d="M25.473 16.0291C25.3547 16.3114 25.2372 16.5936 25.1182 16.8802C25.1278 16.8823 25.1357 16.8844 25.1424 16.8861C25.1544 16.8893 25.1628 16.8915 25.1712 16.8911C25.2715 16.8912 25.3718 16.8913 25.4721 16.8915C26.0241 16.8923 26.576 16.8931 27.1279 16.8882C27.1693 16.8882 27.2317 16.8367 27.2477 16.7946C27.3659 16.4862 27.4791 16.1764 27.5843 15.8637C27.6177 15.7643 27.6663 15.7317 27.7708 15.7324C28.5282 15.7368 29.2864 15.7382 30.0439 15.7317C30.1686 15.7309 30.218 15.765 30.2405 15.8898C30.2834 16.1272 30.3337 16.3626 30.3842 16.5994C30.4046 16.6949 30.4251 16.7906 30.4451 16.8867H32.2901C32.2874 16.8693 32.285 16.8525 32.2826 16.8361C32.2774 16.7998 32.2724 16.7656 32.2654 16.7322C32.2036 16.4368 32.1418 16.1415 32.08 15.8461C31.6215 13.6558 31.163 11.4653 30.7084 9.27372C30.6859 9.16634 30.6424 9.14602 30.5452 9.14675C30.0351 9.15037 29.5258 9.15037 29.0158 9.1482C28.5703 9.14675 28.267 9.35425 28.0965 9.762C27.5837 10.9876 27.0707 12.213 26.5576 13.4383C26.196 14.3019 25.8345 15.1655 25.473 16.0291ZM29.5434 12.5748C29.6514 13.0926 29.7599 13.6126 29.8696 14.1376C29.3088 14.1376 28.7734 14.1376 28.2118 14.1369C28.56 13.1777 28.9032 12.2309 29.2464 11.2841C29.2558 11.2855 29.2653 11.2863 29.2747 11.287C29.3643 11.7157 29.4537 12.1445 29.5434 12.5748Z" fill="#152884"/>
<path id="Vector_4" fill-rule="evenodd" clip-rule="evenodd" d="M25.5808 9.35189C25.4648 9.89459 25.3494 10.4308 25.234 10.9713C25.0142 10.898 24.8053 10.8182 24.5905 10.7587C24.1167 10.6274 23.6335 10.5708 23.1474 10.6651C22.9726 10.6992 22.7926 10.7732 22.6468 10.8748C22.3239 11.099 22.3138 11.469 22.6279 11.7062C22.8681 11.8876 23.1394 12.0269 23.3977 12.1836C23.7191 12.3781 24.0587 12.5471 24.3605 12.7684C25.1281 13.3314 25.3835 14.1136 25.123 15.0299C24.8778 15.8926 24.272 16.4099 23.4645 16.7211C22.7244 17.0062 21.9532 17.0469 21.1732 16.9838C20.6828 16.9439 20.2003 16.8582 19.7338 16.6957C19.6569 16.6689 19.5814 16.6377 19.4951 16.6043C19.6162 16.0355 19.736 15.4776 19.852 14.9312C20.1836 15.048 20.5014 15.1815 20.8308 15.2715C21.322 15.405 21.8277 15.4536 22.329 15.3412C22.5242 15.2976 22.7237 15.2084 22.8848 15.0908C23.1859 14.8703 23.2084 14.464 22.9269 14.2188C22.715 14.0345 22.4625 13.8952 22.2216 13.7464C21.8596 13.523 21.47 13.338 21.1304 13.0847C19.9972 12.2395 20.1996 10.9626 20.788 10.1979C21.2248 9.63049 21.824 9.31634 22.5039 9.14801C23.5066 8.89988 24.4962 8.97098 25.4698 9.30691C25.5054 9.31996 25.538 9.33448 25.5808 9.35189Z" fill="#152884"/>
<path id="Vector_5" fill-rule="evenodd" clip-rule="evenodd" d="M19.7688 9.16087C19.7159 9.4148 19.6651 9.66438 19.6114 9.91324C19.1274 12.1762 18.6413 14.4391 18.1625 16.7028C18.1313 16.8501 18.0812 16.9002 17.926 16.8965C17.3796 16.8856 16.8333 16.8922 16.287 16.8922C16.2369 16.8922 16.1876 16.8922 16.1172 16.8922C16.1687 16.6498 16.2166 16.4228 16.2652 16.1964C16.76 13.8841 17.2556 11.5718 17.7489 9.25881C17.7642 9.18698 17.7801 9.14563 17.8672 9.14563C18.4781 9.14926 19.0883 9.14781 19.6992 9.14853C19.7166 9.14998 19.734 9.15506 19.7688 9.16087Z" fill="#152884"/>
<path id="Vector_6" fill-rule="evenodd" clip-rule="evenodd" d="M7.54281 9.1439H7.69154C8.75227 9.1439 9.81299 9.14317 10.8737 9.1439C11.4338 9.1439 11.777 9.42976 11.8808 9.97826C12.155 11.4286 12.4293 12.8789 12.7035 14.3292C12.705 14.3379 12.7093 14.3466 12.7231 14.3844C12.7528 14.3191 12.7753 14.2748 12.7935 14.2284C13.4465 12.5793 14.1002 10.9301 14.7481 9.27957C14.7909 9.17002 14.8453 9.13955 14.957 9.14027C15.5541 9.14535 16.1512 9.14245 16.7476 9.14245H16.9036C16.8739 9.22008 16.8514 9.2832 16.8253 9.34487C15.7892 11.8182 14.7524 14.2908 13.7178 16.7648C13.6815 16.8519 13.6409 16.8904 13.5393 16.8889C12.9146 16.8838 12.29 16.8838 11.666 16.8889C11.5681 16.8896 11.5347 16.8584 11.5107 16.7656C10.9855 14.7239 10.4544 12.6837 9.93053 10.6414C9.85145 10.3345 9.68385 10.1219 9.39727 9.98552C8.82264 9.71127 8.2161 9.53714 7.60012 9.38913C7.56965 9.38187 7.5399 9.37244 7.5 9.36156C7.50726 9.32238 7.51306 9.28756 7.51959 9.25273C7.52684 9.22298 7.53337 9.19179 7.54281 9.1439Z" fill="#152884"/>
</g>
<defs>
<clipPath id="clip0_188_634">
<rect width="39" height="26" fill="white" transform="translate(0.5)"/>
</clipPath>
</defs>
</svg>
