<svg width="40" height="26" viewBox="0 0 40 26" fill="none" xmlns="http://www.w3.org/2000/svg">
<g id="card-mastercard.svg" clip-path="url(#clip0_188_649)">
<path id="Vector" fill-rule="evenodd" clip-rule="evenodd" d="M39.5 22.75C39.5 24.5375 38.0375 26 36.25 26H3.75C1.9625 26 0.5 24.5375 0.5 22.75V3.25C0.5 1.4625 1.9625 0 3.75 0H36.25C38.0375 0 39.5 1.4625 39.5 3.25V22.75Z" fill="white"/>
<path id="Vector_2" d="M36.25 0H3.75C1.9625 0 0.5 1.4625 0.5 3.25V22.75C0.5 24.5375 1.9625 26 3.75 26H36.25C38.0375 26 39.5 24.5375 39.5 22.75V3.25C39.5 1.4625 38.0375 0 36.25 0ZM36.25 0.65C37.6839 0.65 38.85 1.8161 38.85 3.25V22.75C38.85 24.1839 37.6839 25.35 36.25 25.35H3.75C2.3161 25.35 1.15 24.1839 1.15 22.75V3.25C1.15 1.8161 2.3161 0.65 3.75 0.65H36.25Z" fill="#B3B3B3"/>
<path id="Vector_3" fill-rule="evenodd" clip-rule="evenodd" d="M23.1453 18.4765C26.0349 18.4765 28.3774 16.134 28.3774 13.2444C28.3774 10.3547 26.0349 8.01221 23.1453 8.01221C20.2557 8.01221 17.9131 10.3547 17.9131 13.2444C17.9131 16.134 20.2557 18.4765 23.1453 18.4765Z" fill="#F79E1B"/>
<path id="Vector_4" fill-rule="evenodd" clip-rule="evenodd" d="M16.7321 18.4643C19.6218 18.4643 21.9643 16.1218 21.9643 13.2321C21.9643 10.3425 19.6218 8 16.7321 8C13.8425 8 11.5 10.3425 11.5 13.2321C11.5 16.1218 13.8425 18.4643 16.7321 18.4643Z" fill="#EB001B"/>
<path id="Vector_5" fill-rule="evenodd" clip-rule="evenodd" d="M17.9131 13.2322C17.9094 14.9139 18.6986 16.412 19.9289 17.3721C21.1641 16.4174 21.9605 14.9237 21.9648 13.2425C21.9684 11.5607 21.1793 10.0627 19.949 9.10254C18.7132 10.056 17.9167 11.5504 17.9131 13.2322Z" fill="#FF5F00"/>
</g>
<defs>
<clipPath id="clip0_188_649">
<rect width="39" height="26" fill="white" transform="translate(0.5)"/>
</clipPath>
</defs>
</svg>
