<svg width="40" height="26" viewBox="0 0 40 26" fill="none" xmlns="http://www.w3.org/2000/svg">
<g id="card-aura.svg" clip-path="url(#clip0_188_664)">
<path id="Vector" fill-rule="evenodd" clip-rule="evenodd" d="M39 22.75C39 24.5375 38.0375 25.5 36.25 25.5H3.75001C1.96251 25.5 1 24.5375 1 22.75L1.00001 3.25C1.00001 1.4625 1.96251 0.5 3.75001 0.5H36.25C38.0375 0.5 39 1.4625 39 3.25V22.75Z" fill="#152884"/>
<path id="Vector_2" fill-rule="evenodd" clip-rule="evenodd" d="M1 15.2555V22.7526C1 24.5401 1.96256 25.5 3.75006 25.5H36C37.7875 25.5 39 24.5401 39 22.7526V16.1447C31.8942 13.7761 20.3791 10.3278 1 15.2555Z" fill="#FFED00"/>
<path id="Vector_3" fill-rule="evenodd" clip-rule="evenodd" d="M1.00001 12.759L1 16.5544C20.3791 11.6274 31.8942 15.0756 39 17.4429V13.4792C34.0477 11.6423 20.1691 7.53044 1.00001 12.759Z" fill="#EB212E"/>
<path id="Vector_4" fill-rule="evenodd" clip-rule="evenodd" d="M12.9199 10.5032C13.8943 7.81032 16.1244 5.48462 19.9997 5.50997C23.8743 5.53597 26.4587 7.74922 27.1562 10.6449C22.1629 10.1262 18.8343 10.0352 12.9199 10.5032Z" fill="#FFED00"/>
<path id="Vector_5" fill-rule="evenodd" clip-rule="evenodd" d="M11.724 17.759L9.08691 21.6928H10.0444L10.801 20.502H13.6759L14.4761 21.6928H15.505L12.6951 17.759H11.724ZM11.0674 20.0759H11.0686L11.0661 20.0798L11.0674 20.0759ZM11.0686 20.0759L11.8227 18.9287C11.9754 18.6921 12.1002 18.4379 12.1932 18.1721C12.3388 18.4535 12.5013 18.7259 12.6787 18.9878L13.3956 20.0759H11.0686ZM22.9234 21.6892V18.8429H23.68V19.2738C23.8288 19.1042 24.0121 18.9683 24.2169 18.8741C24.3891 18.8084 24.5724 18.7753 24.757 18.7772C25.0528 18.7779 25.3459 18.8292 25.6241 18.9287L25.3336 19.3824C25.1353 19.3128 24.9267 19.2771 24.7161 19.2764C24.5451 19.2738 24.3761 19.3063 24.2182 19.372C24.0869 19.4227 23.9764 19.5156 23.9049 19.6365C23.8106 19.8088 23.7619 20.0025 23.7645 20.1994V21.6899L22.9234 21.6892ZM29.1978 21.6617C29.5124 21.5902 29.8172 21.4823 30.1058 21.3393L30.0909 21.3471C30.1136 21.4771 30.1715 21.5987 30.2586 21.6981H31.1393C31.0418 21.6032 30.9684 21.4856 30.9261 21.3562C30.8767 21.0761 30.8579 20.7907 30.8715 20.506V19.8632C30.8787 19.7137 30.8644 19.5642 30.8306 19.4186C30.7786 19.2853 30.6876 19.1703 30.5686 19.0903C30.3879 18.9824 30.189 18.909 29.9817 18.8739C29.6404 18.8095 29.294 18.7809 28.9469 18.7874C28.5679 18.7829 28.1897 18.8167 27.8179 18.8875C27.5527 18.9304 27.2992 19.0286 27.0736 19.1748C26.904 19.297 26.7753 19.4673 26.7044 19.6636L27.5273 19.7286C27.6066 19.5388 27.7568 19.3874 27.9466 19.3068C28.2293 19.2132 28.5276 19.1722 28.8253 19.1872C29.1536 19.1683 29.4812 19.2242 29.7847 19.3503C29.942 19.4264 30.0369 19.5908 30.0239 19.765V19.8905C29.526 19.9756 29.0242 20.0309 28.5199 20.0569C28.1871 20.0796 27.9375 20.1056 27.7724 20.1297C27.5656 20.1589 27.3629 20.2096 27.1672 20.2811C27.0041 20.3403 26.8559 20.4352 26.733 20.558C26.6284 20.6581 26.5679 20.7959 26.5666 20.9409C26.5666 21.1788 26.7116 21.3731 27.0067 21.5265C27.3018 21.6799 27.721 21.7553 28.267 21.7553C28.5796 21.7573 28.8916 21.7261 29.1978 21.6617ZM28.6584 20.4481C29.1205 20.4182 29.5807 20.3571 30.0351 20.2648L30.0357 20.437C30.0481 20.6093 30 20.7802 29.8992 20.92C29.7478 21.0812 29.5547 21.1969 29.3409 21.2541C29.0601 21.3392 28.7676 21.3802 28.4738 21.375C28.2183 21.388 27.9635 21.3444 27.7276 21.2463C27.5586 21.1598 27.4721 21.0526 27.4721 20.9239C27.476 20.8335 27.5189 20.7497 27.5904 20.6951C27.6873 20.6184 27.8017 20.5664 27.9232 20.5436C28.1657 20.4942 28.4114 20.4624 28.6584 20.4481ZM20.1245 21.2728V21.6901L20.8798 21.6908V18.8444H20.0367V20.3726C20.0497 20.5682 20.001 20.7632 19.8976 20.9296C19.7767 21.0778 19.6116 21.1838 19.427 21.2325C19.1976 21.3079 18.9571 21.345 18.7159 21.343C18.4982 21.3495 18.2811 21.3131 18.0776 21.2358C17.9294 21.1831 17.8085 21.0746 17.7403 20.9329C17.6967 20.7671 17.6798 20.5949 17.6889 20.4233V18.8451H16.8459V20.6079C16.8394 20.7606 16.8563 20.914 16.8972 21.0616C16.9473 21.2033 17.0376 21.3274 17.1572 21.4184C17.3275 21.5361 17.5206 21.6186 17.7234 21.6602C17.9925 21.7259 18.2681 21.7577 18.545 21.7558C19.2093 21.7558 19.7364 21.5946 20.1245 21.2728Z" fill="#152884"/>
<path id="Vector_6" d="M36.25 0H3.75C1.9625 0 0.5 1.4625 0.5 3.25V22.75C0.5 24.5375 1.9625 26 3.75 26H36.25C38.0375 26 39.5 24.5375 39.5 22.75V3.25C39.5 1.4625 38.0375 0 36.25 0ZM36.25 0.65C37.6839 0.65 38.85 1.8161 38.85 3.25V22.75C38.85 24.1839 37.6839 25.35 36.25 25.35H3.75C2.3161 25.35 1.15 24.1839 1.15 22.75V3.25C1.15 1.8161 2.3161 0.65 3.75 0.65H36.25Z" fill="#B3B3B3"/>
</g>
<defs>
<clipPath id="clip0_188_664">
<rect width="39" height="26" fill="white" transform="translate(0.5)"/>
</clipPath>
</defs>
</svg>
