<svg width="40" height="26" viewBox="0 0 40 26" fill="none" xmlns="http://www.w3.org/2000/svg">
<g id="card-amex.svg" clip-path="url(#clip0_188_629)">
<path id="Vector" fill-rule="evenodd" clip-rule="evenodd" d="M39.5 22.75C39.5 24.5375 38.0375 26 36.25 26H3.75C1.9625 26 0.5 24.5375 0.5 22.75V3.25C0.5 1.4625 1.9625 0 3.75 0H36.25C38.0375 0 39.5 1.4625 39.5 3.25V22.75Z" fill="white"/>
<path id="Vector_2" d="M36.25 0H3.75C1.9625 0 0.5 1.4625 0.5 3.25V22.75C0.5 24.5375 1.9625 26 3.75 26H36.25C38.0375 26 39.5 24.5375 39.5 22.75V3.25C39.5 1.4625 38.0375 0 36.25 0ZM36.25 0.65C37.6839 0.65 38.85 1.8161 38.85 3.25V22.75C38.85 24.1839 37.6839 25.35 36.25 25.35H3.75C2.3161 25.35 1.15 24.1839 1.15 22.75V3.25C1.15 1.8161 2.3161 0.65 3.75 0.65H36.25Z" fill="#B3B3B3"/>
<path id="Vector_3" d="M10.4117 11.56L11.2482 13.2998H9.50978L10.4117 11.56ZM25.7749 14.2856H22.8678V13.343H25.7749V12.4861H22.8678V11.715H25.7749V10.9864L27.9316 12.932L25.7749 14.8865V14.2856ZM28.787 12.2454L27.3619 10.8569H21.6426V15.1425H27.1725L28.7406 13.7368L30.3177 15.1425H31.7907L29.539 12.974L31.8576 10.8569H30.3184L28.787 12.2454ZM20.5492 10.8569H18.5538L17.0527 13.7286L15.4375 10.8569H13.4421V15.0142L11.3805 10.8569H9.50908L7.30458 15.1425H8.65361L9.1 14.1656H11.665L12.1783 15.1425H14.6581V11.654L16.4155 15.1425H17.5744L19.3227 11.7137V15.1425H20.5485L20.5492 10.8569ZM9.96815 15.0536L9.51964 16H5.5L8.67262 10H16.25L17.0147 11.325L17.7293 10H20.421H21.7778H27.9449L28.818 10.8238L29.7558 10H34.5L31.1316 12.993L34.3543 16H29.7636L28.7363 15.1165L27.7175 16H21.7778H20.421H11.3306L10.8377 15.0536H9.96815Z" fill="#129AD7"/>
</g>
<defs>
<clipPath id="clip0_188_629">
<rect width="39" height="26" fill="white" transform="translate(0.5)"/>
</clipPath>
</defs>
</svg>
