<svg width="40" height="26" viewBox="0 0 40 26" fill="none" xmlns="http://www.w3.org/2000/svg">
<g id="card-hipercard.svg" clip-path="url(#clip0_188_672)">
<path id="Vector" fill-rule="evenodd" clip-rule="evenodd" d="M39.5 22.75C39.5 24.5375 38.0375 26 36.25 26H3.75C1.9625 26 0.5 24.5375 0.5 22.75V3.25C0.5 1.4625 1.9625 0 3.75 0H36.25C38.0375 0 39.5 1.4625 39.5 3.25V22.75Z" fill="white"/>
<path id="Vector_2" fill-rule="evenodd" clip-rule="evenodd" d="M17.4786 19.5205L4.5 19.525V19.494C4.5 19.4766 4.52064 19.3657 4.5458 19.2463C4.57096 19.1276 4.61031 18.938 4.63288 18.8258C4.65546 18.7135 4.69481 18.5226 4.71932 18.4019C4.74383 18.2807 4.78512 18.0794 4.81092 17.9543C4.83672 17.8291 4.87672 17.6311 4.89994 17.5143C4.92316 17.3976 4.96251 17.2067 4.98702 17.0905C5.01153 16.9738 5.05282 16.7725 5.07926 16.6429C5.10571 16.5132 5.14571 16.3152 5.16828 16.2029C5.19086 16.0907 5.22698 15.9172 5.24827 15.8178C5.26956 15.7185 5.29665 15.5843 5.30891 15.5192C5.32052 15.4547 5.35922 15.2637 5.3947 15.0947C5.43018 14.9257 5.46888 14.7354 5.48114 14.6709C5.49339 14.6064 5.53274 14.4155 5.56758 14.2465C5.60305 14.0781 5.64176 13.8872 5.65401 13.8227C5.66627 13.7582 5.70497 13.5672 5.7411 13.3989C5.77658 13.2305 5.81528 13.0428 5.82689 12.9828C5.8385 12.9228 5.86946 12.7667 5.89591 12.637C5.92236 12.5074 5.97332 12.2635 6.00815 12.0952C6.04299 11.9268 6.10298 11.6333 6.14168 11.443C6.18038 11.2527 6.22554 11.027 6.24295 10.9405C6.26037 10.8541 6.29262 10.6986 6.31391 10.5948C6.3352 10.4909 6.3739 10.3038 6.3997 10.1787C6.42551 10.0536 6.46808 9.84844 6.49388 9.72329C6.51969 9.59815 6.55903 9.40334 6.58161 9.2911C6.60419 9.17886 6.64289 8.99179 6.6674 8.87504C6.69192 8.75828 6.73449 8.55315 6.76158 8.41963C6.78868 8.28545 6.83448 8.08097 6.86286 7.96421C6.89124 7.84746 6.93123 7.70619 6.95252 7.65007C6.97316 7.59395 7.03057 7.47203 7.0796 7.37979L7.16926 7.21143L7.25054 7.10499C7.29505 7.04629 7.37504 6.95405 7.42793 6.89922C7.48083 6.84439 7.56985 6.76246 7.62597 6.71666C7.68209 6.67086 7.76336 6.60894 7.80658 6.57927C7.8498 6.54959 7.9343 6.49734 7.99494 6.4638C8.05558 6.42961 8.14008 6.38575 8.1833 6.3651C8.22652 6.34446 8.31489 6.30769 8.3794 6.28254C8.4439 6.25738 8.56775 6.21545 8.65419 6.189C8.74063 6.16256 8.90254 6.12321 9.01478 6.10127C9.12638 6.07934 9.30312 6.04967 9.40762 6.03548L9.59727 6.01032L22.5836 6.00516L35.57 6V6.03096C35.57 6.04838 35.5494 6.15933 35.5236 6.27867C35.4984 6.39736 35.4558 6.6012 35.4287 6.73085C35.4023 6.86051 35.3636 7.04758 35.3429 7.14692C35.3223 7.24626 35.283 7.4372 35.2552 7.57137C35.2281 7.70554 35.1856 7.91003 35.1617 8.02678C35.1378 8.14354 35.0985 8.33448 35.0752 8.45123C35.052 8.56799 35.0127 8.75893 34.9882 8.87504C34.9636 8.99179 34.9262 9.17564 34.9043 9.28336C34.8824 9.39109 34.843 9.5859 34.8166 9.71555C34.7901 9.84521 34.7476 10.0503 34.7224 10.171C34.6972 10.2916 34.6579 10.4793 34.636 10.587C34.614 10.6948 34.5747 10.8896 34.5482 11.0192C34.5218 11.1489 34.4799 11.354 34.4541 11.4746C34.4282 11.5953 34.3908 11.7791 34.3695 11.883C34.3489 11.9868 34.3096 12.181 34.2818 12.3152C34.2547 12.4493 34.2147 12.6435 34.1941 12.7473C34.1728 12.8512 34.1347 13.035 34.1096 13.1557C34.0844 13.2769 34.0412 13.4853 34.0141 13.6188C33.987 13.753 33.9477 13.9433 33.927 14.0426C33.9064 14.142 33.8683 14.329 33.8419 14.4587C33.8154 14.5883 33.7735 14.7935 33.7484 14.9141C33.7232 15.0347 33.6845 15.2257 33.6613 15.3379C33.6387 15.4501 33.5987 15.6443 33.5729 15.7701C33.5471 15.8952 33.5052 16.1004 33.4794 16.2255C33.4536 16.3507 33.4155 16.5384 33.3942 16.6416C33.3729 16.7454 33.3342 16.9364 33.3078 17.066C33.2813 17.1957 33.2388 17.3995 33.2123 17.5201L33.1652 17.7382L33.1091 17.8891C33.0781 17.9723 33.0317 18.0826 33.0059 18.1342C32.9801 18.1859 32.9272 18.2775 32.8885 18.3374C32.8498 18.3974 32.7962 18.4742 32.7685 18.5084C32.7408 18.5426 32.6595 18.6297 32.5866 18.7032L32.4544 18.8361L32.3266 18.9264C32.2563 18.9761 32.1809 19.027 32.1589 19.0393C32.137 19.0515 32.0525 19.0947 31.9712 19.1354C31.8899 19.176 31.7758 19.2276 31.7171 19.2502C31.6584 19.2728 31.5416 19.3108 31.4577 19.3354C31.3739 19.3599 31.2842 19.3837 31.2584 19.3889C31.2326 19.3941 31.1423 19.4128 31.0584 19.4302C30.9746 19.4482 30.8049 19.4747 30.6817 19.4895L30.4573 19.516L17.4786 19.5205Z" fill="#B7232C"/>
<path id="Vector_3" fill-rule="evenodd" clip-rule="evenodd" d="M11.6926 10.249L11.7423 10.0361H10.7953L10.7747 10.1806C10.7695 10.2213 10.7501 10.3348 10.734 10.4335L10.7269 10.4735C10.7089 10.5748 10.6831 10.7238 10.6644 10.8263C10.6437 10.9431 10.605 11.1663 10.5792 11.3224C10.5534 11.4778 10.5205 11.6849 10.5063 11.781L10.4902 11.8881L9.42264 11.91L8.94594 11.8984C8.76726 11.8939 8.63438 11.89 8.55568 11.8875C8.55762 11.8739 8.5602 11.8584 8.56342 11.843C8.57632 11.7707 8.59954 11.6443 8.61632 11.563C8.63309 11.4804 8.6647 11.3172 8.68663 11.2005C8.70856 11.0824 8.73372 10.936 8.74275 10.8741C8.75049 10.8154 8.76791 10.7173 8.78081 10.656C8.79435 10.5928 8.82016 10.4593 8.83693 10.36C8.85241 10.2703 8.86918 10.1871 8.8737 10.171L8.92595 10.0361H7.97125L7.93449 10.2393C7.92094 10.3161 7.90288 10.4245 7.89449 10.4819C7.88611 10.538 7.85708 10.7173 7.83063 10.8812L7.65711 11.9655C7.63066 12.1294 7.58809 12.3829 7.56164 12.5293C7.53455 12.6764 7.49649 12.8841 7.47585 12.9918L7.38941 13.4472C7.36232 13.5904 7.32297 13.7904 7.30168 13.8936C7.28039 13.9987 7.25653 14.1194 7.24879 14.1632C7.24104 14.2058 7.21718 14.3297 7.19525 14.438C7.17976 14.5154 7.15332 14.6503 7.15332 14.678V14.7838H8.06608L8.25573 13.633C8.28282 13.473 8.32217 13.2369 8.34474 13.1073C8.36668 12.9783 8.40216 12.777 8.4228 12.6615C8.43634 12.5861 8.44795 12.5287 8.45312 12.499H10.3806L10.3773 12.5164C10.3677 12.5667 10.338 12.7202 10.3128 12.8589L10.2174 13.3776C10.1903 13.524 10.1516 13.7323 10.1309 13.8407C10.1103 13.9484 10.0677 14.1755 10.0374 14.3439C10.0206 14.438 9.98062 14.6586 9.98062 14.6838L9.98191 14.7838H10.8959L10.9243 14.6187C10.934 14.5645 10.9488 14.4658 10.9585 14.4006C10.9675 14.3361 10.9888 14.1994 11.0062 14.0962L11.0843 13.6407C11.1094 13.493 11.1514 13.2427 11.1785 13.0828C11.2049 12.9228 11.2443 12.6899 11.2656 12.5648C11.2875 12.4396 11.3255 12.2287 11.3507 12.0945L11.6203 10.6257C11.6448 10.4793 11.6784 10.3109 11.6926 10.249Z" fill="#F5F5F5"/>
<path id="Vector_4" fill-rule="evenodd" clip-rule="evenodd" d="M12.5892 12.7025L12.675 12.2549C12.6969 12.1381 12.7395 11.9175 12.7705 11.7627C12.8021 11.604 12.8259 11.4969 12.833 11.4801L12.9091 11.3556L12.0106 11.3666L11.9725 11.6395C11.957 11.7523 11.9229 11.9736 11.8964 12.1329L11.8087 12.6754C11.7867 12.8135 11.748 13.0347 11.7229 13.1683L11.6371 13.6237C11.6152 13.7404 11.5758 13.9449 11.55 14.0784C11.5242 14.212 11.4887 14.3881 11.472 14.47C11.4558 14.55 11.4384 14.6306 11.4332 14.65L11.3965 14.7867H12.2331L12.2622 14.7106C12.2763 14.6732 12.277 14.6087 12.277 14.6016C12.277 14.5809 12.2938 14.45 12.3234 14.2662C12.3499 14.1049 12.3925 13.8423 12.4189 13.683C12.4454 13.523 12.4841 13.2902 12.5053 13.1644C12.526 13.0399 12.564 12.8322 12.5892 12.7025Z" fill="#F5F5F5"/>
<path id="Vector_5" fill-rule="evenodd" clip-rule="evenodd" d="M12.3747 10.9412L12.6127 10.9496L12.7772 10.8942L12.9424 10.7387L13.0314 10.5284L13.0391 10.211L12.9643 10.0872L12.8088 9.98071H12.5495L12.3566 10.0594L12.2373 10.1781L12.1483 10.3742L12.127 10.6922L12.218 10.8703L12.3747 10.9412Z" fill="#F5F5F5"/>
<path id="Vector_6" fill-rule="evenodd" clip-rule="evenodd" d="M15.9755 11.7471L16.0819 11.9593L16.1535 12.2631L16.1761 12.5586L16.158 12.7392C16.1477 12.8308 16.1251 12.9817 16.1071 13.0753L16.0754 13.2385L16.0122 13.4365C15.9768 13.5449 15.918 13.7029 15.8813 13.7893C15.8471 13.87 15.7936 13.9796 15.7619 14.0254C15.7587 14.0305 15.7554 14.0356 15.7523 14.0406C15.7423 14.0561 15.7333 14.0702 15.7284 14.079C15.722 14.099 15.702 14.1312 15.6413 14.2106C15.5975 14.2686 15.5149 14.3622 15.4575 14.4196L15.3549 14.5215L15.2323 14.604C15.1672 14.6466 15.073 14.6995 15.0175 14.7247L14.9234 14.7679L14.5589 14.8627L14.2196 14.8853L13.9293 14.8459L13.6874 14.7421L13.5249 14.5782C13.512 14.6647 13.4933 14.7898 13.4771 14.8924L13.3217 15.8768C13.3068 15.9722 13.2978 16.0548 13.2978 16.0716C13.2978 16.0999 13.2933 16.1432 13.2836 16.1703L13.2527 16.2477H12.4199L12.4521 16.1128C12.4567 16.0935 12.4812 15.9735 12.507 15.8451C12.5328 15.7161 12.5747 15.4975 12.6005 15.3588C12.6263 15.2214 12.6695 14.9879 12.6966 14.8408L12.8688 13.9067C12.8946 13.7635 12.9372 13.5242 12.963 13.3733L13.1359 12.3444C13.1617 12.1889 13.2056 11.9193 13.2333 11.7445L13.2946 11.3581H14.0229L14.0203 11.4413C14.0196 11.4678 14.0106 11.5213 14.0022 11.5645C14.0188 11.5527 14.0341 11.5427 14.041 11.5382L14.0441 11.5361C14.0951 11.5045 14.1835 11.4568 14.2415 11.4297L14.3473 11.3813L14.6034 11.3142L14.9118 11.2775L15.1943 11.2962L15.4742 11.3633L15.7568 11.511L15.9755 11.7471ZM15.2935 12.9829L15.3071 12.4133L15.2832 12.3237C15.2703 12.274 15.2439 12.2011 15.2265 12.1676L15.1955 12.105L15.0781 11.9876L14.9284 11.9186L14.7259 11.8779L14.455 11.8941L14.2537 11.9586L14.186 11.9992C14.1447 12.0224 14.0705 12.0747 14.0234 12.114L13.9557 12.1702L13.9202 12.3598C13.8976 12.4785 13.857 12.7004 13.8305 12.8507C13.8041 13.0029 13.7641 13.2223 13.7415 13.339L13.7009 13.5512L13.6873 13.7996L13.7041 13.8731C13.7144 13.9138 13.737 13.9821 13.7544 14.0215L13.7828 14.0853L13.8834 14.1815L14.0357 14.2505L14.1969 14.2789L14.4298 14.2627L14.6736 14.1795L14.7214 14.144C14.751 14.1221 14.8001 14.0828 14.8291 14.0576C14.853 14.037 14.9001 13.9854 14.9297 13.9434C14.9581 13.9041 15.0116 13.8157 15.0478 13.7473L15.1136 13.6228L15.1619 13.4803C15.1916 13.3951 15.2329 13.2513 15.2535 13.1597L15.2935 12.9829Z" fill="#F5F5F5"/>
<path id="Vector_7" fill-rule="evenodd" clip-rule="evenodd" d="M19.3934 12.2291L19.3928 12.3736L19.3708 12.5567C19.3579 12.6522 19.3347 12.7825 19.3199 12.847L19.2786 13.0218L17.4666 13.0096L17.0641 13.0283L17.0202 13.3134L17.0215 13.6824L17.0789 13.8836L17.1621 14.0243L17.2686 14.1197L17.3337 14.152C17.3718 14.1713 17.444 14.1997 17.4924 14.2152L17.5737 14.241L18.111 14.2404L18.4413 14.1739L18.5961 14.1223C18.6896 14.092 18.7838 14.0572 18.8096 14.0443L18.9186 13.9914L18.9909 14.061L18.9993 14.1217L18.9606 14.3081C18.9399 14.4087 18.9186 14.5216 18.9135 14.5597L18.8961 14.6874L18.6496 14.7416C18.5477 14.7635 18.3813 14.7945 18.2787 14.8087C18.1826 14.8222 18.0252 14.8396 17.9291 14.8486L17.7524 14.8648L17.5756 14.8628C17.4743 14.8616 17.3466 14.8545 17.2847 14.8467C17.2221 14.8383 17.1118 14.817 17.0383 14.7996L16.9093 14.7687L16.8022 14.7216C16.7454 14.6958 16.6641 14.648 16.6164 14.6126C16.5687 14.5764 16.5009 14.5164 16.4629 14.4764C16.4222 14.4339 16.3713 14.3655 16.3461 14.3216C16.3223 14.2784 16.2881 14.2042 16.2687 14.1533C16.25 14.1017 16.2236 14.0133 16.21 13.954L16.1862 13.852L16.1836 13.3663L16.2094 13.1947C16.2236 13.105 16.2526 12.9606 16.2732 12.8722C16.2952 12.7806 16.33 12.6567 16.3532 12.5896C16.3758 12.5232 16.41 12.4329 16.4281 12.3884C16.4474 12.3432 16.4887 12.2568 16.5197 12.1942C16.5513 12.131 16.6074 12.0362 16.6442 11.9814C16.6809 11.9265 16.748 11.8452 16.7964 11.7962C16.8422 11.7511 16.9119 11.6872 16.9525 11.6543C16.9931 11.6221 17.0738 11.5679 17.1357 11.5324C17.195 11.4988 17.2982 11.4498 17.3653 11.4221L17.484 11.3756L17.8756 11.2989L18.1994 11.2769L18.551 11.3105L18.8361 11.3782L18.9335 11.4266C18.9793 11.4505 19.0438 11.4905 19.0767 11.513C19.1141 11.5395 19.1657 11.5866 19.1954 11.6208C19.2244 11.6543 19.2663 11.7156 19.2921 11.7595L19.3418 11.8523L19.3921 12.0671L19.3934 12.2291ZM18.5904 12.4893L18.6149 12.2655L18.5884 12.1049L18.573 12.0752C18.5659 12.0623 18.5401 12.0255 18.5155 11.9991L18.4781 11.9591L18.3285 11.8907L18.1072 11.863L17.9576 11.8726C17.8666 11.8778 17.7769 11.8894 17.7524 11.8959C17.7279 11.9023 17.6602 11.9281 17.6021 11.9559L17.5131 11.9984L17.3241 12.1861L17.2828 12.2687C17.2583 12.3184 17.2203 12.4087 17.1983 12.4687C17.1957 12.4745 17.1938 12.4803 17.1919 12.4861C17.3241 12.488 17.5718 12.4893 17.8718 12.4893H18.5904Z" fill="#F5F5F5"/>
<path id="Vector_8" fill-rule="evenodd" clip-rule="evenodd" d="M21.5374 11.9761C21.638 12.0057 21.649 12.0057 21.6587 12.0057C21.6677 12.0057 21.749 12.0025 21.749 11.889C21.7496 11.8729 21.7632 11.7871 21.7864 11.6742C21.827 11.4729 21.827 11.4632 21.827 11.4549C21.827 11.3878 21.7683 11.3665 21.6554 11.3329C21.5948 11.3149 21.5013 11.2923 21.4503 11.2865L21.3593 11.2749L21.2452 11.2949C21.1858 11.3059 21.0981 11.3284 21.0458 11.3471C20.9949 11.3658 20.9143 11.4065 20.8614 11.4407C20.8085 11.4749 20.7317 11.5361 20.6872 11.58C20.6646 11.6026 20.6343 11.6355 20.604 11.6716C20.6195 11.5845 20.6343 11.5058 20.6388 11.489L20.6788 11.3581H19.8905V11.4755C19.8899 11.4923 19.8763 11.5942 19.8518 11.7419C19.8299 11.8748 19.7944 12.0967 19.7725 12.2354C19.7506 12.3734 19.7119 12.614 19.6861 12.7688C19.6603 12.9237 19.6215 13.1456 19.5996 13.2617L19.5132 13.7171C19.4874 13.8513 19.4448 14.0699 19.4184 14.2035C19.3919 14.3376 19.3603 14.495 19.348 14.5544C19.3242 14.6705 19.3242 14.6866 19.3242 14.706V14.7866H20.1505L20.166 14.5699C20.1711 14.4937 20.1905 14.3363 20.2073 14.2273C20.2247 14.1132 20.2608 13.8854 20.2879 13.7216C20.3143 13.5584 20.3634 13.2868 20.3963 13.1172C20.4324 12.9385 20.4685 12.7811 20.4775 12.754C20.4859 12.7301 20.5059 12.6702 20.5046 12.6514C20.5072 12.6411 20.5246 12.5947 20.555 12.5295C20.5833 12.4676 20.6388 12.3689 20.6762 12.3128L20.7356 12.2205L20.9181 12.0515L21.1265 11.9516L21.4574 11.9535L21.5374 11.9761Z" fill="#F5F5F5"/>
<path id="Vector_9" fill-rule="evenodd" clip-rule="evenodd" d="M24.2129 11.8398C24.2239 11.7689 24.2433 11.6528 24.2562 11.5812C24.2839 11.4257 24.28 11.4012 24.2504 11.3715C24.2317 11.3535 24.2239 11.3457 24.0659 11.3277C23.9943 11.3193 23.7982 11.3044 23.6311 11.2948L23.3202 11.278L22.8854 11.3122L22.5577 11.3818L22.4558 11.4225C22.401 11.4444 22.3132 11.487 22.2629 11.5173C22.2178 11.545 22.1604 11.5825 22.1333 11.6005C22.1017 11.6237 22.0204 11.6986 21.9591 11.7586L21.8288 11.8889L21.7617 11.9869C21.723 12.0443 21.6566 12.1611 21.614 12.2475L21.5353 12.4088L21.4779 12.5739C21.4456 12.6668 21.4005 12.8177 21.3779 12.9106L21.3353 13.0867L21.3057 13.3931L21.3063 13.7963L21.3411 14.044L21.4424 14.293L21.5624 14.4768L21.7359 14.6471L21.9533 14.7639L22.0739 14.7974C22.1455 14.8174 22.2429 14.8387 22.2965 14.8471C22.3507 14.8548 22.4739 14.8613 22.5706 14.8626L22.7487 14.8645L22.9499 14.8407C23.0596 14.8278 23.206 14.8058 23.275 14.7929C23.3447 14.7794 23.4576 14.7529 23.5247 14.7329C23.6634 14.6949 23.6808 14.6794 23.6872 14.6729C23.7053 14.6587 23.7227 14.6439 23.7569 14.4678C23.773 14.3859 23.793 14.2762 23.802 14.224C23.8207 14.1104 23.8169 14.0853 23.7891 14.0524L23.762 14.0279H23.7285C23.6982 14.0279 23.6724 14.0434 23.6614 14.0524C23.6492 14.0595 23.5892 14.0853 23.5066 14.1163L23.3679 14.1685L22.9551 14.2511L22.6009 14.2388L22.4197 14.1756L22.2816 14.0543L22.1881 13.8834L22.141 13.6518V13.4828L22.1404 13.3261L22.1997 12.9293L22.2326 12.819C22.2507 12.7578 22.272 12.6855 22.2784 12.6597C22.2849 12.6358 22.3126 12.5662 22.3384 12.5068C22.3655 12.4443 22.4145 12.3481 22.4461 12.292L22.4951 12.203L22.6293 12.0604L22.7693 11.9708L22.8706 11.9392C22.9241 11.923 23.0196 11.9011 23.0789 11.8921L23.1802 11.8753L23.5143 11.8908L23.9104 11.9688L23.9936 11.9998C24.0917 12.0366 24.0917 12.0366 24.1091 12.0366C24.1826 12.0372 24.1891 11.9914 24.2129 11.8398Z" fill="#F5F5F5"/>
<path id="Vector_10" fill-rule="evenodd" clip-rule="evenodd" d="M26.7871 11.3831L27.0044 11.4979L27.1438 11.6373L27.2405 11.8547L27.238 12.2482L27.1947 12.4894C27.1731 12.6061 27.1374 12.802 27.1123 12.9398L27.107 12.9687C27.0825 13.1061 27.0438 13.3254 27.0219 13.4544C27.0006 13.5841 26.9638 13.8195 26.9412 13.9782L26.9006 14.2691L26.8806 14.7858H26.1452L26.1459 14.6071C26.1459 14.5691 26.1504 14.5072 26.1568 14.4433C26.1426 14.4588 26.1291 14.473 26.1168 14.4852C26.0704 14.5323 25.993 14.5955 25.9414 14.6297C25.893 14.6626 25.8124 14.7084 25.7588 14.7342L25.6724 14.7749L25.3905 14.8478L24.9415 14.8619L24.8416 14.8465C24.788 14.8387 24.6945 14.8168 24.6326 14.8L24.5048 14.7607L24.2971 14.6297L24.2442 14.5678C24.2113 14.5297 24.1655 14.462 24.1391 14.4143L24.0875 14.313L24.0423 14.0737L24.041 13.7705L24.0901 13.4822L24.1475 13.3422C24.1784 13.2706 24.2275 13.1764 24.2604 13.128C24.2913 13.0816 24.361 13.0003 24.4177 12.9435L24.5119 12.8494L24.6461 12.7636C24.7854 12.6765 24.8028 12.6765 24.8228 12.6765C24.8207 12.6756 24.83 12.6712 24.8434 12.6647C24.8504 12.6614 24.8585 12.6575 24.8667 12.6533C24.9106 12.6333 25.026 12.5946 25.1318 12.5662L25.3376 12.512L26.402 12.5075L26.4426 12.3081L26.442 12.2036L26.4426 12.1095L26.3665 11.9953L26.2136 11.9198L25.9517 11.874L25.5453 11.8927L25.3195 11.9321C25.1963 11.9527 25.0241 11.9888 24.9435 12.0101C24.8048 12.0482 24.7803 12.0482 24.7725 12.0482H24.7364L24.71 12.0211C24.6764 11.9876 24.6796 11.9682 24.7312 11.7695C24.7558 11.6766 24.7835 11.5605 24.7938 11.5115L24.8254 11.358L25.148 11.356L25.3273 11.3341C25.4337 11.3206 25.6376 11.3031 25.7821 11.2941L26.0439 11.278L26.4613 11.3089L26.7871 11.3831ZM26.291 13.1005L26.2994 13.0515H25.5679L25.326 13.1089L25.1518 13.1947L24.9809 13.3643L24.937 13.4559C24.9112 13.5075 24.8789 13.5907 24.8654 13.6365L24.8422 13.7159L24.8538 13.9868L24.8796 14.0352C24.8957 14.0655 24.9247 14.1107 24.9422 14.1306L24.9705 14.1648L25.0273 14.1939C25.0615 14.2119 25.1254 14.2358 25.1641 14.2455L25.2357 14.2635L25.464 14.2513L25.6975 14.1777L25.7459 14.1448C25.7872 14.1171 25.8124 14.1036 25.8291 14.0971C25.8459 14.0848 25.8775 14.0558 25.911 14.0216L25.9981 13.9352L26.0504 13.8475C26.0723 13.8101 26.0923 13.7752 26.0994 13.7604C26.1046 13.7417 26.1168 13.7056 26.1478 13.6256C26.1717 13.5656 26.2097 13.4469 26.2316 13.3663C26.2529 13.2856 26.2794 13.1676 26.291 13.1005Z" fill="#F5F5F5"/>
<path id="Vector_11" fill-rule="evenodd" clip-rule="evenodd" d="M29.5827 12.0001L29.644 11.9956L29.7123 11.9524L29.7136 11.8588C29.7136 11.8408 29.7285 11.7485 29.7497 11.6453L29.8001 11.4015L29.6949 11.3596C29.6704 11.3505 29.6143 11.3318 29.5704 11.3183L29.4917 11.2931L29.184 11.2899L28.9118 11.3834L28.7389 11.4873L28.5661 11.6647C28.5796 11.5937 28.5957 11.5008 28.5964 11.475L28.5983 11.3576H27.9352L27.8546 11.3615V11.4421C27.8533 11.4563 27.8397 11.5505 27.823 11.6602C27.8055 11.7782 27.7694 12.004 27.7436 12.1639C27.7178 12.3226 27.6759 12.5807 27.6494 12.7368C27.6236 12.8916 27.5849 13.1135 27.563 13.2302C27.5411 13.3463 27.5024 13.5515 27.4772 13.685L27.2598 14.7861H28.1242L28.1236 14.5075L28.1635 14.2475C28.1855 14.1049 28.221 13.8785 28.2435 13.745C28.2661 13.6115 28.2932 13.4405 28.3048 13.3676C28.3164 13.2947 28.3461 13.138 28.3719 13.0187C28.399 12.8929 28.43 12.769 28.4409 12.7374C28.4435 12.729 28.4699 12.6568 28.4693 12.6348C28.4719 12.6239 28.4925 12.5729 28.528 12.4981L28.5848 12.3749L28.7486 12.1575L28.8325 12.0936C28.8796 12.0582 28.9576 12.0098 29.0034 11.9878L29.0763 11.9517L29.4375 11.9549L29.5827 12.0001Z" fill="#F5F5F5"/>
<path id="Vector_12" fill-rule="evenodd" clip-rule="evenodd" d="M32.1373 10.1122L32.1547 9.94189H32.9804V10.0226C32.9811 10.0419 32.9811 10.0497 32.9411 10.2432C32.9204 10.3419 32.8811 10.536 32.8546 10.6734C32.8282 10.8115 32.7882 11.0224 32.7656 11.1437L32.5876 12.11C32.5618 12.2519 32.5224 12.4712 32.5011 12.5964C32.4799 12.7215 32.447 12.9086 32.4282 13.0131C32.4102 13.1156 32.3779 13.313 32.3573 13.4504C32.3366 13.5878 32.2986 13.88 32.2728 14.1L32.2257 14.5006L32.2263 14.7831H31.4407L31.4594 14.5883C31.4619 14.5619 31.4658 14.5296 31.4697 14.498L31.469 14.4993L31.2955 14.6541L31.1852 14.7141C31.1278 14.7431 31.0452 14.776 30.9969 14.7896C30.9478 14.8037 30.842 14.8244 30.7685 14.8366L30.6201 14.8612L30.464 14.8592C30.3757 14.8579 30.2634 14.8515 30.2086 14.8444C30.1538 14.8373 30.0615 14.8186 30.0009 14.8018C29.9422 14.787 29.8506 14.7515 29.7932 14.7225L29.699 14.6767L29.5455 14.5535L29.401 14.3567L29.3681 14.2735C29.3494 14.2264 29.3236 14.1535 29.3113 14.1129L29.2907 14.0432L29.252 13.6336L29.2991 13.1318L29.3494 12.9305C29.3771 12.8221 29.4177 12.6873 29.4423 12.6241C29.4648 12.5628 29.5222 12.4338 29.5719 12.3306L29.6571 12.1532L29.7364 12.0371C29.7796 11.9758 29.8577 11.8803 29.9112 11.8229L30.006 11.721L30.237 11.5481L30.5479 11.3952L30.8775 11.3095L31.2355 11.2753L31.658 11.3069L31.8206 11.3469C31.8245 11.3475 31.8864 11.3636 31.9386 11.3785L31.987 11.085C32.0128 10.9295 32.0548 10.6689 32.0812 10.5044C32.1064 10.3419 32.1322 10.1658 32.1373 10.1122ZM30.2874 12.6187C30.2668 12.6639 30.2493 12.7084 30.2455 12.7245C30.2455 12.7245 30.2629 12.6923 30.2029 12.8813L30.1642 13.0064L30.1165 13.3548L30.1132 13.7528L30.1532 13.9282L30.2358 14.0876L30.3429 14.1746L30.4093 14.203C30.4461 14.2191 30.5106 14.2385 30.5474 14.2449L30.628 14.2591L30.8363 14.2456L31.0653 14.1727L31.1428 14.1217C31.1866 14.0934 31.2447 14.0482 31.2711 14.0237C31.2956 14.0018 31.3376 13.9527 31.3621 13.9173C31.3866 13.8831 31.4253 13.814 31.4472 13.7676C31.4692 13.7224 31.4969 13.6489 31.5091 13.607L31.5627 13.4083C31.5795 13.3451 31.6111 13.1993 31.633 13.0845C31.6373 13.0618 31.6422 13.0357 31.6475 13.0073C31.6697 12.8896 31.6992 12.7331 31.7194 12.6213C31.7452 12.4833 31.7807 12.2859 31.7988 12.182C31.8109 12.1112 31.8239 12.04 31.8322 11.994L31.8362 11.9724C31.8007 11.9608 31.733 11.9401 31.6691 11.9227L31.5304 11.8847H31.0363L30.8022 11.9659L30.7473 12.0014C30.7138 12.0227 30.6525 12.0711 30.617 12.1059C30.5803 12.1408 30.5209 12.2085 30.4874 12.2536C30.4545 12.2982 30.4061 12.3756 30.3816 12.422C30.3551 12.473 30.3132 12.5613 30.2874 12.6187Z" fill="#F5F5F5"/>
<path id="Vector_13" d="M36.25 0H3.75C1.9625 0 0.5 1.4625 0.5 3.25V22.75C0.5 24.5375 1.9625 26 3.75 26H36.25C38.0375 26 39.5 24.5375 39.5 22.75V3.25C39.5 1.4625 38.0375 0 36.25 0ZM36.25 0.65C37.6839 0.65 38.85 1.8161 38.85 3.25V22.75C38.85 24.1839 37.6839 25.35 36.25 25.35H3.75C2.3161 25.35 1.15 24.1839 1.15 22.75V3.25C1.15 1.8161 2.3161 0.65 3.75 0.65H36.25Z" fill="#B3B3B3"/>
</g>
<defs>
<clipPath id="clip0_188_672">
<rect width="39" height="26" fill="white" transform="translate(0.5)"/>
</clipPath>
</defs>
</svg>
