<svg width="40" height="26" viewBox="0 0 40 26" fill="none" xmlns="http://www.w3.org/2000/svg">
<g id="card-discover.svg" clip-path="url(#clip0_188_656)">
<path id="Vector" fill-rule="evenodd" clip-rule="evenodd" d="M39.5 22.75C39.5 24.5375 38.0375 26 36.25 26H3.75C1.9625 26 0.5 24.5375 0.5 22.75V3.25C0.5 1.4625 1.9625 0 3.75 0H36.25C38.0375 0 39.5 1.4625 39.5 3.25V22.75Z" fill="white"/>
<path id="Vector_2" fill-rule="evenodd" clip-rule="evenodd" d="M38.8706 18V22.5634C38.8706 22.9821 38.7848 23.3812 38.6303 23.7445C38.4751 24.1077 38.2524 24.4363 37.9768 24.7119C37.7012 24.9876 37.3732 25.2102 37.0094 25.3654C36.6449 25.52 36.2464 25.6057 35.8283 25.6057H22.1642H8.5L38.8706 18Z" fill="#F16821"/>
<path id="Vector_3" fill-rule="evenodd" clip-rule="evenodd" d="M20.9491 10.7782C19.6125 10.7782 18.5273 11.8226 18.5273 13.1108C18.5273 14.4806 19.5647 15.5056 20.9491 15.5056C22.2975 15.5056 23.362 14.4682 23.362 13.1392C23.362 11.815 22.3045 10.7782 20.9491 10.7782Z" fill="url(#paint0_linear_188_656)"/>
<path id="Vector_4" fill-rule="evenodd" clip-rule="evenodd" d="M14.6231 13.108C14.6231 14.4557 15.682 15.5008 17.0435 15.5008C17.4286 15.5008 17.7589 15.4253 18.1641 15.2328V14.1801C17.8053 14.5381 17.4902 14.6822 17.0844 14.6822C16.1834 14.6822 15.5435 14.0291 15.5435 13.1011C15.5435 12.2209 16.2042 11.5269 17.0435 11.5269C17.4695 11.5269 17.7922 11.6779 18.1641 12.0429V10.9902C17.7721 10.7907 17.4487 10.7083 17.0643 10.7083C15.7097 10.7083 14.6231 11.7749 14.6231 13.108ZM25.6374 15.5143H25.1561L23.2107 10.8111H24.1865L25.4095 13.8916L26.6471 10.8111H27.6174L25.6374 15.5143ZM28.0233 10.8111V15.3972L30.5594 15.3979V14.6209H28.9167V13.3833H30.4978V12.6062H28.9167V11.5882H30.5594V10.8111H28.0233ZM34.5001 15.3972L33.0561 13.465C33.7293 13.3286 34.1012 12.8673 34.1012 12.1665C34.1012 11.3063 33.5111 10.8111 32.4792 10.8111H31.1523V15.3972H32.0463V13.555H32.1634L33.401 15.3972H34.5001ZM33.1808 12.2161C33.1808 12.6766 32.8767 12.9246 32.3075 12.9246H32.0464V11.5353H32.3206C32.8767 11.536 33.1808 11.7694 33.1808 12.2161ZM12.7601 15.5088C12.0787 15.5088 11.5842 15.2408 11.1721 14.6355L11.7497 14.0787C11.9554 14.4769 12.2996 14.6902 12.7248 14.6902C13.1244 14.6902 13.4194 14.4152 13.4194 14.044C13.4194 13.8515 13.3315 13.6867 13.1528 13.5689C13.0628 13.5142 12.8841 13.4311 12.5337 13.3085C11.695 13.0059 11.4062 12.6832 11.4062 12.0502C11.4062 11.3015 12.0253 10.7378 12.8356 10.7378C13.3377 10.7378 13.799 10.9095 14.1833 11.2461L13.7165 11.8583C13.4818 11.5965 13.2629 11.4864 12.9942 11.4864C12.6098 11.4864 12.3266 11.7067 12.3266 11.9955C12.3266 12.2434 12.4866 12.3736 13.0219 12.573C14.0393 12.9449 14.3419 13.2746 14.3419 14.0032C14.3419 14.8889 13.6881 15.5088 12.7601 15.5088ZM10.8341 10.8111H9.9414V15.3972H10.8341V10.8111ZM9.5293 13.1076C9.5293 11.753 8.51817 10.8111 7.06796 10.8111H5.75488V15.3972H7.06035C7.75498 15.3972 8.25708 15.2324 8.69685 14.8674C9.21973 14.4353 9.5293 13.7815 9.5293 13.1076ZM8.11307 14.2565C8.42264 13.9816 8.60755 13.5418 8.60755 13.1013C8.60755 12.6616 8.42264 12.2349 8.11307 11.9593C7.81735 11.6913 7.46691 11.5881 6.88932 11.5881H6.64831V14.6208H6.88932C7.46691 14.6208 7.8312 14.5107 8.11307 14.2565Z" fill="#221F1F"/>
<path id="Vector_5" fill-rule="evenodd" clip-rule="evenodd" d="M18.7989 13.3871C18.7989 12.0989 19.8841 11.0546 21.2207 11.0546C21.8364 11.0546 22.3898 11.2686 22.8115 11.6259C22.3731 11.1051 21.7062 10.7782 20.9444 10.7782C19.6078 10.7782 18.5225 11.8226 18.5225 13.1108C18.5225 13.8636 18.8363 14.5118 19.3481 14.9433C19.0025 14.5312 18.7989 13.9931 18.7989 13.3871Z" fill="#A3310B"/>
<path id="Vector_6" d="M36.25 0H3.75C1.9625 0 0.5 1.4625 0.5 3.25V22.75C0.5 24.5375 1.9625 26 3.75 26H36.25C38.0375 26 39.5 24.5375 39.5 22.75V3.25C39.5 1.4625 38.0375 0 36.25 0ZM36.25 0.65C37.6839 0.65 38.85 1.8161 38.85 3.25V22.75C38.85 24.1839 37.6839 25.35 36.25 25.35H3.75C2.3161 25.35 1.15 24.1839 1.15 22.75V3.25C1.15 1.8161 2.3161 0.65 3.75 0.65H36.25Z" fill="#B3B3B3"/>
</g>
<defs>
<linearGradient id="paint0_linear_188_656" x1="17.377" y1="12.6064" x2="20.2758" y2="16.8549" gradientUnits="userSpaceOnUse">
<stop stop-color="#E25416"/>
<stop offset="1" stop-color="#F9A020"/>
</linearGradient>
<clipPath id="clip0_188_656">
<rect width="39" height="26" fill="white" transform="translate(0.5)"/>
</clipPath>
</defs>
</svg>
