<svg width="40" height="26" viewBox="0 0 40 26" fill="none" xmlns="http://www.w3.org/2000/svg">
<g id="card-elo.svg" clip-path="url(#clip0_188_687)">
<path id="Vector" fill-rule="evenodd" clip-rule="evenodd" d="M39.5 22.75C39.5 24.5375 38.0375 26 36.25 26H3.75C1.9625 26 0.5 24.5375 0.5 22.75V3.25C0.5 1.4625 1.9625 0 3.75 0H36.25C38.0375 0 39.5 1.4625 39.5 3.25V22.75Z" fill="white"/>
<path id="Vector_2" d="M36.25 0H3.75C1.9625 0 0.5 1.4625 0.5 3.25V22.75C0.5 24.5375 1.9625 26 3.75 26H36.25C38.0375 26 39.5 24.5375 39.5 22.75V3.25C39.5 1.4625 38.0375 0 36.25 0ZM36.25 0.65C37.6839 0.65 38.85 1.8161 38.85 3.25V22.75C38.85 24.1839 37.6839 25.35 36.25 25.35H3.75C2.3161 25.35 1.15 24.1839 1.15 22.75V3.25C1.15 1.8161 2.3161 0.65 3.75 0.65H36.25Z" fill="#B3B3B3"/>
<path id="Vector_3" fill-rule="evenodd" clip-rule="evenodd" d="M26.8053 9.33777V15.5945L27.891 16.0448L27.3772 17.2786L26.3032 16.8325C26.062 16.728 25.8987 16.5681 25.7744 16.3884C25.6555 16.2039 25.5667 15.9518 25.5667 15.6123V9.33846L26.8053 9.33777ZM31.3241 12.1336C31.1123 12.1336 30.9094 12.1678 30.7195 12.2313L30.2972 10.966C30.6279 10.856 30.975 10.7993 31.3241 10.8C32.892 10.8 34.2004 11.9136 34.5003 13.3934L33.1926 13.6599C33.0164 12.7888 32.2464 12.1336 31.3241 12.1336ZM29.1768 16.4646L30.0602 15.4651C29.6653 15.116 29.4173 14.6056 29.4173 14.0365C29.4173 13.4681 29.666 12.9584 30.0602 12.6093L29.1761 11.6098C28.5059 12.2035 28.083 13.0711 28.083 14.0365C28.0823 15.0026 28.5059 15.8709 29.1768 16.4646ZM33.1926 14.4229C33.0149 15.2926 32.2457 15.9471 31.324 15.9471C31.1184 15.9471 30.9141 15.9143 30.7187 15.8487L30.2951 17.114C30.6265 17.2247 30.9742 17.2814 31.324 17.2807C32.8906 17.2807 34.1983 16.1685 34.5002 14.69L33.1926 14.4229ZM18.5707 13.9902C18.598 12.2016 20.071 10.773 21.859 10.8004C23.3764 10.8236 24.6335 11.8867 24.9634 13.3002L19.0947 15.8089C18.7538 15.2876 18.5605 14.6611 18.5707 13.9902ZM19.9146 14.238C19.9064 14.1628 19.9009 14.0863 19.903 14.0084C19.9201 12.9543 20.787 12.1132 21.8405 12.1303C22.4137 12.1378 22.9227 12.4009 23.2671 12.8067L19.9146 14.238ZM21.7804 15.949C22.3099 15.9566 22.7895 15.7475 23.1434 15.4032L24.0739 16.359C23.4788 16.9417 22.6597 17.295 21.7613 17.2813C21.1676 17.2731 20.5875 17.1009 20.0861 16.7832L20.7952 15.6532C21.0808 15.8343 21.4176 15.9429 21.7804 15.949Z" fill="#221F1F"/>
<path id="Vector_4" fill-rule="evenodd" clip-rule="evenodd" d="M13.8702 13.9377C13.5799 15.3628 12.3201 16.4348 10.8095 16.4348C10.4727 16.4348 10.1379 16.3808 9.81816 16.2742L9.12402 18.3477C9.66717 18.5295 10.2363 18.6217 10.8095 18.621C13.377 18.621 15.5188 16.7989 16.0121 14.377L13.8702 13.9377Z" fill="#ED412F"/>
<path id="Vector_5" fill-rule="evenodd" clip-rule="evenodd" d="M7.29068 17.2915L8.73907 15.6538C8.09276 15.0813 7.68488 14.2457 7.68488 13.3138C7.68488 12.3826 8.09276 11.5471 8.73907 10.9752L7.28999 9.33826C6.19209 10.3112 5.5 11.7315 5.5 13.3145C5.49932 14.8975 6.19209 16.3186 7.29068 17.2915Z" fill="#1AA5DF"/>
<path id="Vector_6" fill-rule="evenodd" clip-rule="evenodd" d="M9.81777 10.3461C10.1368 10.2395 10.4716 10.1856 10.8085 10.1856C12.3204 10.1856 13.5809 11.2596 13.8706 12.6854L16.0124 12.2489C15.5212 9.82484 13.378 8 10.8085 8C10.2366 7.99932 9.66814 8.09155 9.125 8.2726L9.81777 10.3461Z" fill="#FFCA32"/>
</g>
<defs>
<clipPath id="clip0_188_687">
<rect width="39" height="26" fill="white" transform="translate(0.5)"/>
</clipPath>
</defs>
</svg>
