<svg width="40" height="26" viewBox="0 0 40 26" fill="none" xmlns="http://www.w3.org/2000/svg">
<g id="card-diners.svg" clip-path="url(#clip0_188_642)">
<path id="Vector" fill-rule="evenodd" clip-rule="evenodd" d="M39.5 22.75C39.5 24.5375 38.0375 26 36.25 26H3.75C1.9625 26 0.5 24.5375 0.5 22.75V3.25C0.5 1.4625 1.9625 0 3.75 0H36.25C38.0375 0 39.5 1.4625 39.5 3.25V22.75Z" fill="white"/>
<path id="Vector_2" d="M36.25 0H3.75C1.9625 0 0.5 1.4625 0.5 3.25V22.75C0.5 24.5375 1.9625 26 3.75 26H36.25C38.0375 26 39.5 24.5375 39.5 22.75V3.25C39.5 1.4625 38.0375 0 36.25 0ZM36.25 0.65C37.6839 0.65 38.85 1.8161 38.85 3.25V22.75C38.85 24.1839 37.6839 25.35 36.25 25.35H3.75C2.3161 25.35 1.15 24.1839 1.15 22.75V3.25C1.15 1.8161 2.3161 0.65 3.75 0.65H36.25Z" fill="#B3B3B3"/>
<path id="Vector_3" fill-rule="evenodd" clip-rule="evenodd" d="M18.1863 18.9093C18.3493 18.9154 18.6406 18.9264 18.6738 18.9337C19.8182 18.9337 21.8933 18.8992 22.0165 18.881C24.291 18.5616 25.9712 17.3937 27.0211 15.346C27.3261 14.7516 27.4942 14.1097 27.536 13.4397C27.6559 11.5178 27.0081 9.90083 25.5795 8.61041C24.6475 7.76838 23.5396 7.28089 22.302 7.08342C22.1909 7.06546 22.0784 7.05607 21.9658 7.04666C21.9027 7.04139 21.8396 7.03612 21.7767 7.02933C21.7323 7.02477 19.8404 7 18.696 7C18.6255 7.00907 18.4163 7.01908 18.2169 7.02862C18.0439 7.0369 17.8782 7.04483 17.8168 7.05149C16.381 7.20986 15.1434 7.78533 14.1371 8.82613C13.3296 9.66165 12.833 10.6633 12.6251 11.8058C12.5941 11.9776 12.5758 12.1514 12.5576 12.3253C12.5483 12.414 12.539 12.5027 12.528 12.5912C12.5243 12.6203 12.5167 12.6492 12.509 12.6779C12.5059 12.6896 12.5028 12.7013 12.5 12.713V13.2892C12.5059 13.3332 12.5119 13.3773 12.518 13.4214C12.5302 13.5096 12.5424 13.5978 12.5528 13.6861C12.691 14.8709 13.1563 15.9123 13.9312 16.8156C14.6813 17.6903 15.6074 18.3022 16.7069 18.6489C17.154 18.7904 17.6108 18.8803 18.0801 18.9051C18.0914 18.9057 18.1316 18.9072 18.1863 18.9093ZM18.5989 7.4784C21.6575 7.51425 24.0298 10.0273 24.005 12.9594C24.0272 15.9248 21.5878 18.4626 18.4758 18.4326C15.5221 18.4039 13.0528 16.0316 13.0534 12.9509C13.0541 9.87545 15.5476 7.44321 18.5989 7.4784Z" fill="#074C95"/>
<path id="Vector_4" fill-rule="evenodd" clip-rule="evenodd" d="M19.7939 16.1496C19.7939 14.0171 19.7939 11.8958 19.7939 9.77246C20.7376 10.0748 21.9048 11.1691 21.9784 12.799C22.0547 14.5007 20.9168 15.7566 19.7939 16.1496Z" fill="#074C95"/>
<path id="Vector_5" fill-rule="evenodd" clip-rule="evenodd" d="M17.2742 16.1522C16.2334 15.7879 14.9957 14.5789 15.0922 12.7554C15.1723 11.2427 16.2431 10.1178 17.2742 9.76978V16.1522Z" fill="#074C95"/>
</g>
<defs>
<clipPath id="clip0_188_642">
<rect width="39" height="26" fill="white" transform="translate(0.5)"/>
</clipPath>
</defs>
</svg>
