<svg width="38" height="25" viewBox="0 0 38 25" fill="none" xmlns="http://www.w3.org/2000/svg">
<g clip-path="url(#clip0_1_654)">
<path d="M24.1719 4.40572C23.8829 4.05916 23.5211 3.78043 23.1122 3.58933C22.7033 3.39823 22.2573 3.29945 21.8059 3.3H5.19587L5.15273 2.93964C5.06442 2.1906 4.70417 1.49998 4.14027 0.998705C3.57637 0.497431 2.84802 0.220352 2.0933 0.220001L1.86523 0.220001C1.59276 0.220001 1.33146 0.328168 1.13879 0.520705C0.946128 0.713242 0.837891 0.974379 0.837891 1.24667C0.837891 1.51896 0.946128 1.78009 1.13879 1.97263C1.33146 2.16517 1.59276 2.27333 1.86523 2.27333H2.0933C2.34493 2.27337 2.5878 2.36569 2.77584 2.53279C2.96388 2.69989 3.08401 2.93014 3.11345 3.17988L4.52707 15.1919C4.67383 16.4411 5.27444 17.593 6.2149 18.429C7.15536 19.2649 8.37021 19.7267 9.62885 19.7267H20.3574C20.6299 19.7267 20.8912 19.6185 21.0838 19.426C21.2765 19.2334 21.3847 18.9723 21.3847 18.7C21.3847 18.4277 21.2765 18.1666 21.0838 17.974C20.8912 17.7815 20.6299 17.6733 20.3574 17.6733H9.62885C8.99299 17.6716 8.37324 17.4733 7.85457 17.1057C7.3359 16.738 6.9437 16.2191 6.73175 15.62H18.9777C20.182 15.6201 21.3481 15.1973 22.2722 14.4254C23.1962 13.6536 23.8196 12.5818 24.0332 11.3973L24.8397 6.92722C24.9202 6.4837 24.9021 6.02792 24.7867 5.59218C24.6713 5.15643 24.4614 4.75138 24.1719 4.40572ZM22.823 6.56275L22.0155 11.0329C21.8872 11.7443 21.5126 12.388 20.9572 12.8513C20.4018 13.3145 19.7011 13.5678 18.9777 13.5667H6.40506L5.43833 5.35333H21.8059C21.9569 5.35243 22.1061 5.38477 22.2431 5.44805C22.3801 5.51133 22.5015 5.60399 22.5986 5.71945C22.6957 5.83491 22.7661 5.97033 22.8049 6.11608C22.8437 6.26184 22.8499 6.41434 22.823 6.56275Z" fill="#333333"/>
<path d="M8.02923 24.86C9.164 24.86 10.0839 23.9407 10.0839 22.8067C10.0839 21.6726 9.164 20.7533 8.02923 20.7533C6.89446 20.7533 5.97455 21.6726 5.97455 22.8067C5.97455 23.9407 6.89446 24.86 8.02923 24.86Z" fill="#333333"/>
<path d="M18.3027 24.86C19.4374 24.86 20.3574 23.9407 20.3574 22.8067C20.3574 21.6726 19.4374 20.7533 18.3027 20.7533C17.1679 20.7533 16.248 21.6726 16.248 22.8067C16.248 23.9407 17.1679 24.86 18.3027 24.86Z" fill="#333333"/>
</g>
<defs>
<clipPath id="clip0_1_654">
<rect width="37" height="24.64" fill="white" transform="translate(0.830017 0.220001)"/>
</clipPath>
</defs>
</svg>
