<svg width="37" height="40" viewBox="0 0 37 40" fill="none" xmlns="http://www.w3.org/2000/svg">
<path d="M20.9955 28.0599C17.562 28.0599 14.1234 27.9464 10.6977 28.1067C8.91354 28.1904 8.21016 27.6738 8.00026 25.8886C7.22713 19.3046 6.20824 12.7471 5.52833 6.15467C5.29757 3.92106 4.73369 2.83799 2.30609 3.17479C1.36739 3.30522 -0.114986 3.7439 0.00626397 1.82372C0.117735 0.0657685 1.49124 0.828909 2.30283 0.803601C7.39857 0.643316 7.33338 0.684198 7.93507 5.70432C8.66452 11.7874 9.58889 17.8484 10.2773 23.936C10.4539 25.496 11.1638 25.6498 12.4311 25.6407C18.1865 25.5992 23.9433 25.5635 29.6974 25.6634C31.1785 25.6894 31.5207 25.1222 31.758 23.8315C32.5741 19.3909 33.5168 14.973 34.445 10.5538C34.6034 9.79971 34.2488 8.54014 35.8805 8.96713C37.1184 9.29095 37.0943 10.0625 36.9007 11.0262C35.8746 16.1436 34.8277 21.2572 33.8649 26.3863C33.6067 27.7627 32.932 28.1222 31.597 28.0891C28.0651 28.0028 24.53 28.0599 20.9955 28.0599Z" fill="#0A0A0A"/>
<path d="M17.7702 10.0412C18.8269 11.1905 19.5205 11.9971 20.2728 12.7473C20.9527 13.426 20.7056 13.9354 20.1424 14.5247C19.5146 15.182 19.0218 15.1548 18.4012 14.4987C16.8133 12.8199 15.2194 11.1425 13.5473 9.54868C12.5806 8.6272 13.0552 8.07756 13.7781 7.37866C15.2227 5.98217 16.6014 4.51753 18.0264 3.10092C18.6313 2.49936 19.1379 1.56555 20.2011 2.62915C21.1613 3.59021 20.5831 4.16776 19.8953 4.84654C19.2604 5.47276 18.6835 6.15738 17.544 7.40332C20.8901 7.40332 23.6371 7.50261 26.3724 7.36828C28.1618 7.28002 28.9206 7.7187 28.8117 9.67003C28.6494 12.5694 28.7772 15.4851 28.7661 18.3929C28.7628 19.2696 28.9597 20.2424 27.5041 20.2333C26.0875 20.2242 26.2153 19.3047 26.214 18.3975C26.2133 17.9964 26.2147 17.5954 26.2133 17.1937C26.1879 9.46627 26.1879 9.46627 17.7702 10.0412Z" fill="#301A8D"/>
<path d="M35.2771 35.2513C35.2243 37.8639 33.2139 39.7601 30.6057 39.6556C28.1905 39.5589 26.257 37.5635 26.2472 35.1579C26.2368 32.6933 28.4173 30.5012 30.8514 30.5291C33.367 30.5583 35.3292 32.6524 35.2771 35.2513ZM32.7954 35.2416C32.753 33.7848 31.9192 33.0722 30.6787 33.1125C29.5555 33.1488 28.828 33.9866 28.8261 35.1209C28.8248 36.2306 29.4069 37.0735 30.637 37.1274C31.9675 37.1851 32.6813 36.4687 32.7954 35.2416Z" fill="#0A0A0A"/>
<path d="M15.6764 35.1703C15.6542 37.7226 13.5884 39.7057 11.0037 39.6564C8.41511 39.6071 6.5227 37.5733 6.62179 34.9478C6.71371 32.5298 8.70976 30.55 11.0761 30.5292C13.4978 30.5084 15.6972 32.7271 15.6764 35.1703ZM13.1647 35.2463C13.0382 33.9744 12.3394 33.1093 11.1132 33.1093C9.90791 33.11 9.0709 33.8777 9.11262 35.1976C9.14847 36.3319 9.81143 37.0263 10.9535 37.1269C12.3055 37.2463 12.8909 36.4001 13.1647 35.2463Z" fill="#0A0A0A"/>
<path d="M32.7954 35.2415C32.6813 36.4687 31.9675 37.1851 30.637 37.1273C29.4069 37.0741 28.8248 36.2305 28.8261 35.1208C28.8274 33.9859 29.5555 33.1481 30.6787 33.1124C31.9192 33.0728 32.7523 33.7847 32.7954 35.2415Z" fill="#F5F5F5"/>
<path d="M13.1647 35.2463C12.8909 36.4001 12.3055 37.2457 10.9535 37.1269C9.81142 37.0263 9.14846 36.3326 9.11261 35.1976C9.07089 33.8777 9.9079 33.11 11.1132 33.1094C12.3401 33.1094 13.0382 33.9744 13.1647 35.2463Z" fill="#F5F5F5"/>
</svg>
