<svg width="42" height="36" viewBox="0 0 42 36" fill="none" xmlns="http://www.w3.org/2000/svg">
<path d="M24.1409 28.0839C20.7693 28.0839 17.3978 28.0927 14.0291 28.081C11.9681 28.0722 11.1647 27.3041 10.8921 25.2313C10.1122 19.2856 9.27372 13.3458 8.55543 7.39127C8.39711 6.07782 7.79903 5.50905 6.60871 5.25105C5.03434 4.91096 3.46875 4.53276 1.91783 4.10765C0.451927 3.70599 -0.187207 2.79127 0.0473377 1.58923C0.276018 0.416505 1.31388 -0.246082 2.77978 0.0852115C5.44479 0.686231 8.08341 1.40452 10.725 2.09936C11.8303 2.38961 12.2319 3.26035 12.3609 4.29821C12.8065 7.88088 13.2434 11.4635 13.689 15.0433C13.9939 17.5119 14.3076 19.9804 14.6096 22.4519C14.721 23.3579 15.1168 23.7976 16.1312 23.7918C21.6518 23.7507 27.1724 23.78 32.693 23.7654C33.7836 23.7625 35.0091 22.0327 34.6162 21.0799C34.3846 20.5228 33.854 20.7544 33.4552 20.7515C29.1074 20.7339 24.7595 20.7398 20.4116 20.7368C19.9719 20.7368 19.5292 20.7603 19.0923 20.7192C17.9577 20.6108 17.0283 20.1446 17.0958 18.8575C17.1573 17.6438 18.0515 17.2978 19.1686 17.3008C24.1995 17.3154 29.2334 17.3066 34.2644 17.3037C35.6922 17.3037 36.8268 15.958 36.5864 14.5537C36.4486 13.7562 35.7831 13.9673 35.2964 13.9644C31.145 13.9468 26.9906 13.9556 22.8392 13.9497C21.9596 13.9497 21.0742 13.9761 20.2064 13.8823C19.1158 13.765 18.3213 13.1464 18.3389 11.9971C18.3594 10.8508 19.1363 10.2293 20.268 10.2117C21.8775 10.1882 23.4871 10.2644 25.0967 10.2674C29.7377 10.2762 34.3788 10.2615 39.0198 10.2762C41.1952 10.282 42.0484 11.27 41.3946 13.3399C39.9961 17.7611 38.4598 22.1382 36.9441 26.5184C36.5424 27.6764 35.616 28.1045 34.4051 28.0927C30.9808 28.0663 27.5594 28.0839 24.1409 28.0839Z" fill="black"/>
<path d="M30.541 35.9999C28.5181 35.9823 26.9935 34.4724 27.0111 32.4964C27.0258 30.5233 28.5621 29.0427 30.5938 29.0427C32.7018 29.0398 34.2468 30.579 34.1911 32.6254C34.1325 34.6073 32.6109 36.0175 30.541 35.9999Z" fill="black"/>
<path d="M15.4598 35.9998C13.4017 35.9793 12.0003 34.5368 12.0208 32.467C12.0413 30.4294 13.4985 29.0251 15.5771 29.0426C17.5678 29.0602 19.1686 30.6024 19.1744 32.5139C19.1832 34.487 17.5502 36.0203 15.4598 35.9998Z" fill="black"/>
</svg>
