<svg width="24" height="20" viewBox="0 0 24 20" fill="none" xmlns="http://www.w3.org/2000/svg">
<g clip-path="url(#clip0_42_133)">
<path d="M13.9273 15.6028C11.9824 15.6028 10.0375 15.6077 8.09429 15.6012C6.90536 15.5963 6.44197 15.1696 6.28469 14.0181C5.83483 10.7152 5.35114 7.41549 4.93679 4.10768C4.84547 3.37804 4.50046 3.06207 3.81383 2.91875C2.90565 2.72983 2.00254 2.51973 1.10789 2.28357C0.262281 2.06045 -0.106403 1.5523 0.0288937 0.88455C0.160808 0.233084 0.759498 -0.134994 1.6051 0.0490454C3.14242 0.382922 4.66451 0.781944 6.18829 1.16794C6.82588 1.32918 7.05757 1.81289 7.13199 2.38944C7.38905 4.37966 7.64104 6.36989 7.89811 8.35849C8.07399 9.72983 8.25495 11.1012 8.42915 12.4741C8.49341 12.9774 8.72173 13.2217 9.30689 13.2184C12.4914 13.1956 15.676 13.2119 18.8605 13.2038C19.4897 13.2021 20.1966 12.2412 19.97 11.7119C19.8364 11.4025 19.5303 11.5311 19.3003 11.5295C16.7922 11.5197 14.2841 11.523 11.7761 11.5214C11.5224 11.5214 11.267 11.5344 11.015 11.5116C10.3605 11.4513 9.8244 11.1924 9.8633 10.4774C9.89881 9.80312 10.4146 9.61093 11.059 9.61256C13.9611 9.62071 16.8649 9.61582 19.767 9.61419C20.5907 9.61419 21.2452 8.86664 21.1065 8.0865C21.027 7.64351 20.6431 7.76077 20.3623 7.75914C17.9676 7.74937 15.5711 7.75426 13.1764 7.751C12.669 7.751 12.1583 7.76566 11.6577 7.71354C11.0285 7.64839 10.5702 7.30475 10.5804 6.66631C10.5922 6.0295 11.0404 5.68422 11.6932 5.67445C12.6217 5.66142 13.5501 5.70377 14.4786 5.7054C17.1558 5.71028 19.833 5.70214 22.5102 5.71028C23.7651 5.71354 24.2572 6.2624 23.8801 7.41224C23.0734 9.86826 22.1872 12.2999 21.3128 14.7331C21.0811 15.3764 20.5467 15.6142 19.8482 15.6077C17.8729 15.593 15.8992 15.6028 13.9273 15.6028Z" fill="white"/>
<path d="M17.619 20C16.4521 19.9902 15.5727 19.1515 15.5828 18.0537C15.5913 16.9577 16.4775 16.1352 17.6495 16.1352C18.8655 16.1336 19.7567 16.9886 19.7246 18.1254C19.6908 19.2264 18.813 20.0098 17.619 20Z" fill="white"/>
<path d="M8.91945 20C7.73222 19.9886 6.92382 19.1873 6.93566 18.0375C6.9475 16.9055 7.78803 16.1254 8.9871 16.1352C10.1354 16.1449 11.0588 17.0016 11.0622 18.0635C11.0673 19.1596 10.1253 20.0114 8.91945 20Z" fill="white"/>
</g>
<defs>
<clipPath id="clip0_42_133">
<rect width="24" height="20" fill="white"/>
</clipPath>
</defs>
</svg>
