<svg width="39" height="23" viewBox="0 0 39 23" fill="none" xmlns="http://www.w3.org/2000/svg">
<g clip-path="url(#clip0_135_404)">
<path fill-rule="evenodd" clip-rule="evenodd" d="M3.05186 0.665344H35.9742C37.3717 0.665344 38.506 1.79963 38.506 3.19718V19.2368C38.506 20.6344 37.3717 21.7687 35.9742 21.7687H3.05186C1.65431 21.7687 0.52002 20.6344 0.52002 19.2368V3.19718C0.52002 1.79963 1.65431 0.665344 3.05186 0.665344Z" fill="#111014"/>
<path d="M10.485 8.70617C10.779 8.61375 11.0899 8.56334 11.4148 8.56334C12.8348 8.56334 14.0195 9.53518 14.2883 10.8319L16.2992 10.4342C15.8399 8.23566 13.8262 6.57764 11.4148 6.57764C10.8631 6.57764 10.3337 6.66446 9.83521 6.8269L10.485 8.70617Z" fill="#FFCB05"/>
<path d="M8.1128 15.0078L9.47394 13.5234C8.86619 13.0025 8.48529 12.2435 8.48529 11.3976C8.48529 10.5518 8.86619 9.79284 9.47394 9.27471L8.1128 7.78754C7.08214 8.66976 6.43237 9.96089 6.43237 11.3976C6.43237 12.8344 7.08214 14.1255 8.1128 15.0078Z" fill="#00A4E0"/>
<path d="M14.2883 11.9662C14.0167 13.2601 12.8348 14.2348 11.4176 14.2348C11.0899 14.2348 10.7762 14.1843 10.485 14.0863L9.83521 15.9712C10.3337 16.1308 10.8631 16.2177 11.4176 16.2177C13.8262 16.2177 15.8371 14.5624 16.2992 12.3667L14.2883 11.9662Z" fill="#EF4123"/>
<path d="M17.9713 13.669C17.9069 13.5654 17.8201 13.3974 17.7669 13.2741C17.4532 12.5488 17.4392 11.7982 17.7025 11.0784C17.9938 10.2886 18.5455 9.68643 19.2625 9.37835C20.1615 8.98906 21.1558 9.06468 22.0212 9.57721C22.5673 9.89088 22.9566 10.3754 23.2507 11.0616C23.2871 11.1512 23.3207 11.2436 23.3543 11.3248L17.9713 13.669ZM19.7694 10.5406C19.1308 10.8151 18.8004 11.4173 18.8704 12.1174L21.5759 10.9524C21.1109 10.4062 20.506 10.2242 19.7694 10.5406ZM21.9119 13.0753V13.0781L21.8559 13.0389C21.6935 13.2993 21.4414 13.515 21.1249 13.6522C20.52 13.9155 19.9571 13.8455 19.5537 13.4926L19.5173 13.5486L18.8312 14.5765C19.002 14.6941 19.1841 14.7949 19.3745 14.8733C20.1335 15.1898 20.9093 15.173 21.6739 14.8425C22.2256 14.6017 22.6597 14.2376 22.9566 13.7755L21.9119 13.0753Z" fill="white"/>
<path d="M25.3091 7.99481V13.5934L26.2726 13.9463L25.7264 15.1002L24.665 14.6997C24.4269 14.6073 24.2645 14.4644 24.1412 14.302C24.0236 14.1396 23.9368 13.9127 23.9368 13.6102V7.99481H25.3091Z" fill="white"/>
<path d="M27.6925 12.1174C27.6925 11.6301 27.9165 11.196 28.2694 10.9019L27.3256 9.88806C26.6842 10.4314 26.2837 11.2268 26.2837 12.1146C26.2809 12.9996 26.6842 13.7978 27.3228 14.3412L28.2638 13.3273C27.9137 13.0333 27.6925 12.5991 27.6925 12.1174Z" fill="white"/>
<path d="M29.37 13.7306C29.1852 13.7306 29.0031 13.6998 28.8379 13.6466L28.387 14.935C28.695 15.0358 29.0227 15.089 29.3672 15.089C30.86 15.0918 32.1063 14.0695 32.3948 12.714L31.0112 12.4423C30.8544 13.1789 30.1794 13.7306 29.37 13.7306Z" fill="white"/>
<path d="M29.3728 9.14307C29.0311 9.14307 28.7007 9.19628 28.3926 9.2943L28.8407 10.5854C29.0087 10.5294 29.188 10.5014 29.3728 10.5014C30.1822 10.5014 30.86 11.0588 31.014 11.7953L32.3976 11.5265C32.1147 10.1681 30.8684 9.14307 29.3728 9.14307Z" fill="white"/>
</g>
<defs>
<clipPath id="clip0_135_404">
<rect width="38" height="21.5094" fill="white" transform="translate(0.52002 0.665344)"/>
</clipPath>
</defs>
</svg>
