<svg width="41" height="39" viewBox="0 0 41 39" fill="none" xmlns="http://www.w3.org/2000/svg">
<path d="M3.87834 15.9647C9.01011 18.8115 13.874 21.4481 18.6666 24.2101C19.9349 24.9411 20.8833 24.9331 22.1468 24.2058C26.9368 21.4481 31.7959 18.8121 36.6789 16.1029C35.7422 14.6248 34.231 13.9594 32.9733 13.0123C31.9654 12.2535 31.9681 11.6158 32.6692 10.6318C33.5532 9.39171 34.0784 10.4461 34.7333 10.8074C34.8253 10.8581 34.8901 10.96 34.9837 11.0054C39.7407 13.3271 41.4874 16.9743 40.8862 22.3494C40.3658 27.003 40.7124 31.7633 40.8102 36.474C40.8453 38.1544 40.327 38.6693 38.6435 38.6608C26.4833 38.5978 14.3226 38.5978 2.16296 38.6608C0.474692 38.6693 -0.0217943 38.1442 0.000531603 36.4703C0.0855828 30.0451 0.0547518 23.6183 0.0217944 17.1926C0.0159471 16.0554 0.179671 15.1435 1.20294 14.4322C2.9534 13.2156 4.62041 11.8778 6.33472 10.6073C6.91838 10.1745 7.50258 9.57261 8.12558 10.6366C8.57688 11.4072 9.1159 12.0454 8.04638 12.7881C6.74243 13.6937 5.51344 14.7091 3.87834 15.9647ZM32.8202 35.9335C32.8585 35.6683 32.8967 35.4026 32.9356 35.1373C22.9877 29.6209 13.0399 24.105 2.71473 18.3804C2.71473 24.0073 2.78543 28.9267 2.67646 33.8417C2.63818 35.5717 3.23301 36.0221 4.86333 35.9655C8.05594 35.8545 11.2549 35.9335 14.4507 35.9335C20.5744 35.9335 26.697 35.9335 32.8202 35.9335ZM37.8249 34.8172C37.8249 29.1246 37.8249 23.9838 37.8249 18.478C32.8165 21.2859 28.1796 23.8862 23.1695 26.6951C28.3486 29.5654 32.9595 32.1203 37.8249 34.8172Z" fill="#171717"/>
<path d="M17.5439 0.660156C19.3476 1.80902 21.4749 0.811168 23.6256 0.719921C27.2318 0.566774 29.567 4.41037 28.1387 8.0624C26.7731 11.5522 24.019 13.9849 21.3526 16.4593C20.6632 17.0991 20.0891 17.0463 19.431 16.4331C16.8502 14.0298 14.1695 11.692 12.7885 8.3228C11.2172 4.49201 13.4498 0.691106 17.5439 0.660156ZM20.4001 6.06456C19.97 5.42103 19.6867 4.97493 19.3816 4.54431C18.5242 3.33408 17.3159 3.00964 16.0338 3.56993C14.5241 4.23001 14.665 5.69584 15.0636 6.88792C15.9306 9.48127 17.8953 11.3164 19.8297 13.1365C20.1731 13.4593 20.5282 13.5511 20.9098 13.1856C22.975 11.208 25.1661 9.29878 25.8497 6.34791C26.0905 5.3095 26.0459 4.13236 24.8435 3.59661C23.6857 3.08115 22.5513 3.23856 21.6753 4.24495C21.2623 4.71986 20.9449 5.27855 20.4001 6.06456Z" fill="#2E188C"/>
<path d="M32.8202 35.9335C26.697 35.9335 20.5744 35.9335 14.4513 35.9335C11.2549 35.9335 8.05594 35.8545 4.86387 35.9655C3.23354 36.0221 2.63871 35.5717 2.67699 33.8417C2.78543 28.9261 2.71526 24.0068 2.71526 18.3804C13.0399 24.1049 22.9877 29.6209 32.9356 35.1368C32.8967 35.4025 32.8585 35.6678 32.8202 35.9335Z" fill="#F4F4F4"/>
<path d="M37.8249 34.8172C32.9589 32.1203 28.3486 29.5654 23.1695 26.6951C28.1796 23.8862 32.8165 21.2864 37.8249 18.478C37.8249 23.9838 37.8249 29.1246 37.8249 34.8172Z" fill="#F4F4F4"/>
<path d="M20.4001 6.06463C20.9449 5.27808 21.2623 4.71993 21.6753 4.24555C22.5513 3.23916 23.6857 3.08174 24.8435 3.59721C26.0464 4.13296 26.0905 5.3101 25.8497 6.34851C25.1661 9.29937 22.9745 11.2086 20.9098 13.1862C20.5282 13.5517 20.1731 13.4599 19.8297 13.1371C17.8953 11.317 15.9306 9.48187 15.0636 6.88852C14.665 5.6959 14.5241 4.23007 16.0337 3.57053C17.3159 3.01024 18.5242 3.33468 19.3816 4.5449C19.6872 4.97499 19.97 5.42109 20.4001 6.06463Z" fill="#F4F4F4"/>
</svg>
