<svg width="41" height="14" viewBox="0 0 41 14" fill="none" xmlns="http://www.w3.org/2000/svg">
<path d="M2.628 0.339996H7.883L5.255 4.983H9.635L2.628 13.34L4.379 7.769H0L2.628 0.339996ZM14.217 9.873H12.258L13.932 2.358H19.5L19.124 4.048H15.514L15.264 5.22H18.783L18.407 6.91H14.877L14.217 9.873ZM23.685 10.009C21.351 10.009 20.201 8.904 20.201 7.327C20.201 7.203 20.235 6.944 20.258 6.831L21.26 2.358H23.252L22.262 6.786C22.25 6.843 22.228 6.966 22.228 7.102C22.239 7.722 22.718 8.319 23.685 8.319C24.733 8.319 25.268 7.665 25.461 6.786L26.452 2.358H28.433L27.443 6.82C27.033 8.645 26.031 10.009 23.685 10.009ZM33.803 9.873H28.793L30.466 2.358H32.425L31.138 8.183H34.178L33.803 9.873ZM40.481 9.873H35.471L37.145 2.358H39.104L37.817 8.183H40.857L40.481 9.873Z" fill="#00B75B"/>
</svg>
