<svg width="20" height="17" viewBox="0 0 20 17" fill="none" xmlns="http://www.w3.org/2000/svg">
<g clip-path="url(#clip0_135_289)">
<path d="M2.95898 4.8793V4.2393H3.59898C5.59365 4.2393 7.60965 3.4041 9.65765 1.70703L10.0662 1.3689L10.4747 1.70703C12.5227 3.40303 14.5387 4.2393 16.5334 4.2393H17.1734V4.8793C17.1734 10.8878 14.8641 14.7374 10.2689 16.2702L10.0662 16.3374L9.86352 16.2702C5.26832 14.7374 2.96005 10.8878 2.96005 4.8793H2.95898ZM10.0662 3.0201C8.14618 4.51343 6.20485 5.34436 4.24752 5.49476C4.39152 10.5348 6.32432 13.6526 10.0662 14.986C13.8081 13.6526 15.7409 10.5348 15.8849 5.49476C13.9275 5.34436 11.9851 4.51343 10.0662 3.0201ZM9.10085 9.9289L12.5046 6.1081L13.4603 6.9593L9.17232 11.7732L6.53552 9.2377L7.42192 8.31503L9.10085 9.9289Z" fill="black" fill-opacity="0.55"/>
</g>
<defs>
<clipPath id="clip0_135_289">
<rect width="20" height="16" fill="white" transform="translate(0 0.72998)"/>
</clipPath>
</defs>
</svg>
