<svg width="17" height="16" viewBox="0 0 17 16" fill="none" xmlns="http://www.w3.org/2000/svg">
<path d="M8.07498 9.14064C8.24373 8.97189 8.53436 8.97189 8.70311 9.14064L11.1094 11.5469C11.5531 11.9906 12.1437 12.2344 12.7687 12.2344H13.2406L10.2062 15.2688C9.25936 16.1906 7.72186 16.1906 6.77498 15.2688L3.72811 12.225H4.01873C4.64373 12.225 5.23436 11.9813 5.67811 11.5375L8.07498 9.14064ZM8.70311 6.84064C8.50311 7.01251 8.24686 7.01564 8.07498 6.84064L5.67811 4.44376C5.23436 3.97189 4.64373 3.75626 4.01873 3.75626H3.72811L6.77186 0.711265C7.72186 -0.237048 9.25936 -0.237048 10.2062 0.711265L13.2437 3.74689H12.7687C12.1437 3.74689 11.5531 3.99064 11.1094 4.43439L8.70311 6.84064ZM4.01873 4.45939C4.44998 4.45939 4.84686 4.63439 5.17811 4.94064L7.57498 7.33751C7.79998 7.53439 8.09373 7.67501 8.39061 7.67501C8.68436 7.67501 8.97811 7.53439 9.20311 7.33751L11.6094 4.93126C11.9156 4.62814 12.3375 4.45314 12.7687 4.45314H13.9469L15.7687 6.27501C16.7156 7.22189 16.7156 8.75939 15.7687 9.70627L13.9469 11.5281H12.7687C12.3375 11.5281 11.9156 11.3531 11.6094 11.0469L9.20311 8.64064C8.76873 8.20627 8.00936 8.20627 7.57498 8.64377L5.17811 11.0375C4.84686 11.3438 4.44998 11.5188 4.01873 11.5188H3.02436L1.21123 9.70627C0.262922 8.75939 0.262922 7.22189 1.21123 6.27501L3.02436 4.45939H4.01873Z" fill="#0086FF"/>
</svg>
