<svg width="14" height="15" viewBox="0 0 14 15" fill="none" xmlns="http://www.w3.org/2000/svg">
<g clip-path="url(#clip0_1_664)">
<path d="M13.6886 11.25V12.3214C13.6886 12.4665 13.6355 12.5921 13.5295 12.6981C13.4235 12.8041 13.2979 12.8571 13.1528 12.8571H1.36714C1.22205 12.8571 1.09649 12.8041 0.990461 12.6981C0.884434 12.5921 0.831421 12.4665 0.831421 12.3214V11.25C0.831421 11.1049 0.884434 10.9793 0.990461 10.8733C1.09649 10.7673 1.22205 10.7143 1.36714 10.7143H13.1528C13.2979 10.7143 13.4235 10.7673 13.5295 10.8733C13.6355 10.9793 13.6886 11.1049 13.6886 11.25ZM13.6886 6.96428V8.03571C13.6886 8.1808 13.6355 8.30636 13.5295 8.41239C13.4235 8.51841 13.2979 8.57143 13.1528 8.57143H1.36714C1.22205 8.57143 1.09649 8.51841 0.990461 8.41239C0.884434 8.30636 0.831421 8.1808 0.831421 8.03571V6.96428C0.831421 6.81919 0.884434 6.69364 0.990461 6.58761C1.09649 6.48158 1.22205 6.42857 1.36714 6.42857H13.1528C13.2979 6.42857 13.4235 6.48158 13.5295 6.58761C13.6355 6.69364 13.6886 6.81919 13.6886 6.96428ZM13.6886 2.67857V3.75C13.6886 3.89509 13.6355 4.02064 13.5295 4.12667C13.4235 4.2327 13.2979 4.28571 13.1528 4.28571H1.36714C1.22205 4.28571 1.09649 4.2327 0.990461 4.12667C0.884434 4.02064 0.831421 3.89509 0.831421 3.75V2.67857C0.831421 2.53348 0.884434 2.40792 0.990461 2.30189C1.09649 2.19587 1.22205 2.14285 1.36714 2.14285H13.1528C13.2979 2.14285 13.4235 2.19587 13.5295 2.30189C13.6355 2.40792 13.6886 2.53348 13.6886 2.67857Z" fill="#333333"/>
</g>
<defs>
<clipPath id="clip0_1_664">
<rect width="12.86" height="15" fill="white" transform="matrix(1 0 0 -1 0.829987 15)"/>
</clipPath>
</defs>
</svg>
