<svg width="18" height="20" viewBox="0 0 18 20" fill="none" xmlns="http://www.w3.org/2000/svg">
<g clip-path="url(#clip0_135_214)">
<path d="M14.3389 8.19198C14.3389 7.98364 14.2719 7.81251 14.138 7.67859L13.1224 6.67412C12.981 6.53275 12.8136 6.46207 12.6202 6.46207C12.4267 6.46207 12.2593 6.53275 12.1179 6.67412L7.56435 11.2165L5.04203 8.69421C4.90066 8.55284 4.73325 8.48216 4.53979 8.48216C4.34634 8.48216 4.17893 8.55284 4.03756 8.69421L3.02194 9.69867C2.88801 9.8326 2.82104 10.0037 2.82104 10.2121C2.82104 10.413 2.88801 10.5804 3.02194 10.7143L7.06212 14.7545C7.20349 14.8958 7.3709 14.9665 7.56435 14.9665C7.76524 14.9665 7.93637 14.8958 8.07774 14.7545L14.138 8.69421C14.2719 8.56028 14.3389 8.39287 14.3389 8.19198ZM16.0018 5.69756C16.0018 5.69756 16.1934 6.02587 16.5766 6.68249C16.9598 7.33911 17.1514 8.44495 17.1514 10C17.1514 11.5551 16.7682 12.9892 16.0018 14.3025C15.2355 15.6157 14.1957 16.6555 12.8824 17.4219C11.5692 18.1883 10.135 18.5714 8.57997 18.5714C7.02491 18.5714 5.59076 18.1883 4.27752 17.4219C2.96427 16.6555 1.92447 15.6157 1.1581 14.3025C0.391729 12.9892 0.00854492 11.5551 0.00854492 10C0.00854492 8.44495 0.391729 7.0108 1.1581 5.69756C1.92447 4.38431 2.96427 3.34451 4.27752 2.57814C5.59076 1.81177 7.02491 1.42859 8.57997 1.42859C10.135 1.42859 11.5692 1.81177 12.8824 2.57814C14.1957 3.34451 15.2355 4.38431 16.0018 5.69756Z" fill="#005AFF"/>
</g>
<defs>
<clipPath id="clip0_135_214">
<rect width="17.16" height="20" fill="white" transform="matrix(1 0 0 -1 0 20)"/>
</clipPath>
</defs>
</svg>
