<svg width="10" height="18" viewBox="0 0 10 18" fill="none" xmlns="http://www.w3.org/2000/svg">
<path d="M2.68679 9.55328L8.74901 2.36971C9.08319 1.97364 9.03368 1.37955 8.63762 1.04537C8.24155 0.711198 7.64746 0.760705 7.31328 1.15677L1.25106 8.34281C0.916886 8.73888 0.966393 9.33297 1.36245 9.66715C1.75852 10.0013 2.35261 9.95182 2.68679 9.55328Z" fill="white"/>
<path d="M1.04806 10.1523L7.60288 16.8903C7.96429 17.2617 8.56085 17.2716 8.93216 16.9077C9.30347 16.5463 9.31337 15.9497 8.94949 15.5784L2.39714 8.84287C2.03573 8.47156 1.43917 8.46166 1.06786 8.82554C0.694074 9.18447 0.686649 9.78104 1.04806 10.1523Z" fill="white"/>
</svg>
