<svg width="158" height="67" viewBox="0 0 158 67" fill="none" xmlns="http://www.w3.org/2000/svg">
<g clip-path="url(#clip0_20_28)">
<path d="M44.8054 5.94587C44.5353 5.84942 43.987 5.64446 43.35 5.40334C42.3825 5.03763 41.173 4.58351 40.4232 4.31827C40.2216 4.24594 40.0483 4.18967 39.9233 4.14547C35.138 2.61834 28.5829 1.01084 24.7248 0.858125C23.5799 0.8099 22.4914 0.829994 21.4876 0.910369C16.3555 1.32832 12.8401 3.36985 11.3162 6.82196C10.9454 7.66188 10.6994 8.57012 10.5745 9.54667H16.6297C17.952 7.05103 20.7498 5.56409 24.749 5.23857C25.6077 5.16623 26.547 5.15016 27.5387 5.19034C29.4577 5.27072 33.477 5.96998 36.2789 6.58887C36.3918 6.61298 36.6458 6.66523 36.9642 6.72953L38.0406 6.94654C39.0404 7.14748 40.2861 7.39664 40.5159 7.4529L40.6248 7.48103L40.9231 7.42075C42.1043 7.17561 42.7574 7.03897 44.6764 6.89429L46.9541 6.72149L44.8054 5.94587Z" fill="#E69824"/>
<path d="M104.652 49.4248C105.398 52.7081 105.18 55.6257 103.971 57.8963C102.701 60.2835 100.33 61.8467 97.1213 62.4134C96.2788 62.5661 95.3475 62.6706 94.3517 62.7269C92.7674 62.8153 91.1145 62.8153 89.4374 62.7349C89.2963 62.7269 89.1552 62.7228 89.0141 62.7148C88.4134 62.6786 87.7885 62.6344 87.1596 62.5741C86.6315 62.5259 86.1034 62.4656 85.5874 62.4054C83.2935 62.12 80.9391 61.678 78.6009 61.0872C77.7825 60.8822 76.948 60.6532 76.1135 60.404C71.0783 58.909 66.0107 56.7269 61.0521 53.9177C60.27 53.4757 59.4395 52.9854 58.5929 52.467C57.1456 51.5829 55.7064 50.6425 54.3115 49.6739L54.2148 49.6056L52.8199 49.4248H49.3488L50.1511 50.0035C52.5336 51.7275 55.0815 53.3832 57.7302 54.9305C58.5566 55.4127 59.4032 55.891 60.2498 56.3531C65.1762 59.0417 70.2841 61.2922 75.4241 63.0363C76.2828 63.3297 77.077 63.5869 77.8511 63.824C78.7581 64.1013 79.6733 64.3665 80.5682 64.6076C81.1891 64.7764 81.814 64.9372 82.4227 65.0818C83.741 65.4033 85.0673 65.6847 86.3654 65.9218L86.4179 65.9298C89.6914 66.5246 92.7553 66.822 95.5652 66.822C96.2505 66.822 96.9238 66.8059 97.5769 66.7697C98.6976 66.7054 99.778 66.5808 100.782 66.404C105.362 65.5922 108.466 63.4502 109.764 60.2111C110.945 57.2613 110.619 53.5601 108.877 49.4208H104.652V49.4248Z" fill="#E69824"/>
<path d="M129.905 10.4951H140.209C140.959 10.4951 141.757 10.4951 142.604 10.4951C143.446 10.4951 144.245 10.5152 144.999 10.5514C146.837 10.6277 148.554 10.9653 150.151 11.5601C151.747 12.1589 153.126 13.0108 154.287 14.112C155.448 15.2171 156.359 16.5795 157.016 18.2071C157.673 19.8347 158 21.7155 158 23.8494C158 26.0196 157.669 27.9164 157.016 29.544C156.359 31.1716 155.448 32.5299 154.287 33.611C153.122 34.696 151.743 35.5279 150.151 36.1066C148.554 36.6853 146.837 37.0149 144.999 37.0872C144.249 37.1234 143.451 37.1435 142.604 37.1435C141.761 37.1435 140.963 37.1435 140.209 37.1435H138.125V46.4027H129.905V10.4951ZM139.363 29.0175C139.661 29.0175 140.068 29.0175 140.572 29.0175C141.076 29.0175 141.596 29.0175 142.12 29.0175C142.644 29.0175 143.152 29.0095 143.64 28.9894C144.128 28.9693 144.503 28.9613 144.765 28.9613C146.228 28.8849 147.45 28.4549 148.425 27.6713C149.401 26.8836 149.889 25.6137 149.889 23.8534C149.889 22.1334 149.401 20.8715 148.425 20.0638C147.45 19.26 146.212 18.822 144.708 18.7456C144.446 18.7456 144.079 18.7376 143.612 18.7175C143.14 18.6974 142.656 18.6813 142.148 18.6612C141.64 18.6411 141.145 18.6331 140.657 18.6331C140.169 18.6331 139.774 18.6331 139.476 18.6331H138.125V29.0175H139.363Z" fill="#0B0D4C"/>
<path d="M7.02276 46.1897H0V12.0303H7.02276V46.1897Z" fill="#0B0D4C"/>
<path d="M51.3443 46.5835C48.1635 46.5473 45.4464 46.0169 43.1968 44.9961C40.9473 43.9753 38.9799 42.6813 37.2988 41.114L41.4673 35.1542C42.7493 36.1026 44.1644 36.8782 45.7205 37.477C47.2766 38.0798 48.8932 38.3973 50.5743 38.4335C51.0863 38.4335 51.6185 38.3973 52.1668 38.325C52.715 38.2526 53.2109 38.124 53.6463 37.9432C54.0857 37.7623 54.4606 37.5252 54.7711 37.2319C55.0815 36.9425 55.2548 36.5768 55.2911 36.1388C55.3274 35.5922 55.146 35.0979 54.7428 34.6639C54.3397 34.2258 53.8358 33.824 53.2351 33.4623C52.6304 33.0966 52.0015 32.7791 51.3403 32.5058C50.6832 32.2325 50.1148 32.0035 49.6391 31.8226C48.4337 31.3484 47.1597 30.7938 45.8253 30.1548C44.4909 29.5159 43.2815 28.7242 42.2051 27.7757C41.1247 26.8273 40.2579 25.698 39.6008 24.3839C38.9437 23.0698 38.6695 21.4864 38.7784 19.6257C38.8509 18.5688 39.1251 17.4837 39.6008 16.3705C40.0765 15.2573 40.8062 14.2567 41.7939 13.3605C42.7816 12.4683 44.0595 11.7369 45.6358 11.1743C47.2081 10.6076 49.0908 10.3263 51.2879 10.3263C52.6425 10.3263 53.9204 10.4469 55.1299 10.68C56.3353 10.9171 57.452 11.2265 58.476 11.6083C59.4999 11.9901 60.403 12.4201 61.1931 12.8943C61.9793 13.3685 62.6283 13.8226 63.1403 14.2607L58.8065 20.2767C57.8914 19.6579 56.7948 19.1475 55.5129 18.7456C54.2309 18.3437 52.9327 18.0905 51.6185 17.978C50.0825 17.8695 48.9497 18.0423 48.216 18.4964C47.4822 18.9546 47.1355 19.4891 47.1718 20.108C47.2081 20.6183 47.3895 21.0644 47.7201 21.4462C48.0507 21.828 48.478 22.1776 49.0101 22.4871C49.5383 22.7965 50.1349 23.0818 50.792 23.335C51.4492 23.5922 52.1103 23.8655 52.7674 24.1548L53.481 24.4844C54.8719 25.1033 56.2143 25.7784 57.5124 26.5098C58.8106 27.2412 59.9434 28.0772 60.915 29.0256C61.8825 29.974 62.6525 31.051 63.221 32.2526C63.7894 33.4542 64.0514 34.8608 64.0151 36.4643C63.9789 37.6659 63.7209 38.8715 63.2451 40.0731C62.7694 41.2747 62.0276 42.3598 61.0238 43.3283C60.016 44.2968 58.7178 45.0805 57.1295 45.6793C55.5411 46.2821 53.61 46.5835 51.3443 46.5835Z" fill="#0B0D4C"/>
<path d="M66.7202 10.4951H75.1096V24.2995H89.5784V10.4951H97.9679V46.4147H89.5784V32.6063H75.1096V46.4107H66.7202V10.4951Z" fill="#0B0D4C"/>
<path d="M35.0251 31.1515C34.5736 30.4562 34.0697 29.8575 33.5335 29.3752C32.9892 28.8849 32.4127 28.4589 31.8161 28.1093L31.2638 27.7838L31.6871 27.3015C31.937 27.0162 32.2192 26.6666 32.5216 26.2567C32.8159 25.8588 33.1062 25.3725 33.3884 24.8139C33.6665 24.2593 33.9044 23.6123 34.0979 22.893C34.2874 22.1857 34.3841 21.3658 34.3841 20.4576C34.3841 19.4569 34.1987 18.4563 33.8358 17.4877C33.473 16.5232 32.9368 15.6512 32.2475 14.8916C31.5541 14.1321 30.6712 13.481 29.627 12.9626C28.5789 12.4402 27.3533 12.1066 25.9786 11.966C25.1924 11.8936 24.3176 11.8494 23.3864 11.8293C22.4349 11.8092 21.3465 11.8012 20.1491 11.8012H15.2308H10.5745V16.049V46.1615H23.3944C24.3217 46.1615 25.1924 46.1254 25.9826 46.053C27.3855 45.9445 28.7401 45.6672 30.0221 45.2212C31.288 44.7831 32.4047 44.1562 33.348 43.3524C34.2874 42.5527 35.0574 41.5761 35.6339 40.4429C36.2023 39.3256 36.4926 38.0195 36.4926 36.5607C36.4926 35.4355 36.3595 34.4147 36.0975 33.5266C35.8395 32.6465 35.4766 31.8467 35.0251 31.1515ZM17.7827 22.6759V18.7657H20.5361C21.2658 18.7657 21.9713 18.7737 22.6325 18.7938C23.2936 18.8139 23.8984 18.8621 24.4305 18.9345C25.3215 19.0229 26.0592 19.3404 26.6236 19.8829C27.2122 20.4455 27.5105 21.2171 27.5105 22.1736C27.5105 23.126 27.2162 23.9057 26.6317 24.4844C26.0673 25.047 25.3255 25.3806 24.4305 25.465C23.8984 25.5413 23.2856 25.5775 22.6164 25.5775H19.4477H17.7827V22.6759ZM28.2644 38.108C27.5871 38.759 26.543 39.1167 25.0634 39.197C24.5797 39.2332 23.8943 39.2533 22.9792 39.2533H17.7827V31.7704H22.951C23.858 31.7704 24.5716 31.7905 25.0715 31.8266C26.5349 31.907 27.5791 32.2526 28.2523 32.8796C28.9377 33.5185 29.2803 34.3826 29.2803 35.4556C29.2884 36.5607 28.9417 37.4529 28.2644 38.108Z" fill="#0B0D4C"/>
<path d="M101.725 38.5862V41.339V42.5889V45.9365H103.547H107.127H125.74V38.5862H101.725Z" fill="#0B0D4C"/>
<path d="M125.337 18.4643C124.708 16.897 123.838 15.5386 122.729 14.3973C121.62 13.252 120.294 12.3678 118.758 11.7409C117.222 11.114 115.545 10.8005 113.735 10.8005C111.921 10.8005 110.248 11.114 108.712 11.7409C107.176 12.3678 105.853 13.256 104.741 14.3973C103.632 15.5427 102.761 16.897 102.132 18.4643C101.503 20.0316 101.189 21.7556 101.189 23.6404C101.189 25.4489 101.54 27.1086 102.245 28.6237C102.947 30.1388 103.882 31.4449 105.051 32.554C106.216 33.6592 107.551 34.5192 109.05 35.126C110.55 35.7329 112.114 36.0383 113.743 36.0383C115.372 36.0383 116.936 35.7329 118.436 35.126C119.935 34.5152 121.266 33.6592 122.435 32.554C123.6 31.4489 124.535 30.1388 125.237 28.6237C125.938 27.1126 126.293 25.4489 126.293 23.6404C126.281 21.7556 125.966 20.0316 125.337 18.4643ZM110.401 19.9834C111.288 19.0631 112.4 18.6009 113.731 18.6009C115.065 18.6009 116.174 19.0631 117.061 19.9834C117.948 20.9077 118.395 22.1053 118.395 23.5802C118.395 24.8702 117.952 25.9794 117.061 26.8997C116.174 27.824 115.061 28.2821 113.731 28.2821C112.396 28.2821 111.288 27.8199 110.401 26.8997C109.514 25.9794 109.066 24.8702 109.066 23.5802C109.07 22.1053 109.514 20.9077 110.401 19.9834ZM120.975 28.8166C120.492 30.195 119.431 31.3765 118.137 32.1682C116.839 32.964 115.303 33.3739 113.771 33.3739C112.243 33.3739 110.703 32.9599 109.405 32.1682C108.115 31.3806 107.051 30.195 106.567 28.8166C106.547 28.7644 106.575 28.7041 106.631 28.684C106.672 28.6719 106.716 28.68 106.74 28.7121C107.712 29.7369 108.821 30.4924 110.018 30.9948C111.215 31.4971 112.489 31.7423 113.767 31.7463C115.049 31.7423 116.323 31.4971 117.516 30.9948C118.714 30.4924 119.822 29.7369 120.794 28.7121C120.834 28.6719 120.899 28.6679 120.943 28.7081C120.979 28.7362 120.987 28.7804 120.975 28.8166Z" fill="#0B0D4C"/>
</g>
<defs>
<clipPath id="clip0_20_28">
<rect width="158" height="66" fill="white" transform="translate(0 0.830002)"/>
</clipPath>
</defs>
</svg>
