<svg width="39" height="23" viewBox="0 0 39 23" fill="none" xmlns="http://www.w3.org/2000/svg">
<g clip-path="url(#clip0_135_389)">
<path fill-rule="evenodd" clip-rule="evenodd" d="M3.01182 0.665344H35.9341C37.3317 0.665344 38.466 1.79963 38.466 3.19718V19.2368C38.466 20.6344 37.3317 21.7687 35.9341 21.7687H3.01182C1.61427 21.7687 0.47998 20.6344 0.47998 19.2368V3.19718C0.47998 1.79963 1.61427 0.665344 3.01182 0.665344Z" fill="#2E3341"/>
<path d="M16.5449 7.02014H22.1771V16.677H16.5449V7.02014Z" fill="#FF5F00"/>
<path d="M17.1611 11.6637C17.1611 9.70602 18.1021 7.96958 19.5473 6.8465C18.4858 6.02869 17.1442 5.53577 15.6795 5.53577C12.2122 5.53577 9.40869 8.27486 9.40869 11.6637C9.40869 15.0526 12.2122 17.7917 15.6795 17.7917C17.1442 17.7917 18.4858 17.2987 19.5473 16.4809C18.1021 15.3747 17.1611 13.6214 17.1611 11.6637Z" fill="#EB001B"/>
<path d="M29.6885 11.6637C29.6885 15.0526 26.8822 17.7917 23.4149 17.7917C21.9529 17.7917 20.6114 17.2987 19.5471 16.4809C21.0119 15.3578 21.9361 13.6214 21.9361 11.6637C21.9361 9.70602 20.9951 7.96958 19.5471 6.8465C20.6114 6.02869 21.9529 5.53577 23.4149 5.53577C26.8822 5.53577 29.6885 8.29446 29.6885 11.6637Z" fill="#F79E1B"/>
</g>
<defs>
<clipPath id="clip0_135_389">
<rect width="38" height="21.5094" fill="white" transform="translate(0.47998 0.665344)"/>
</clipPath>
</defs>
</svg>
