<svg width="45" height="46" viewBox="0 0 45 46" fill="none" xmlns="http://www.w3.org/2000/svg">
<g clip-path="url(#clip0_135_202)">
<path d="M35.4501 11.9778C36.1039 11.9778 36.2881 11.0937 35.6987 10.8267L12.6846 0.622751C11.2848 -0.00348172 9.63635 0.622751 9.01012 2.03178L0.951975 20.1004C0.325742 21.5003 0.951975 23.1487 2.361 23.775L7.00249 25.7826C7.58268 26.0404 8.24575 25.6168 8.24575 24.9814V17.31C8.24575 14.3722 10.631 11.987 13.5687 11.987H35.4501V11.9778Z" fill="#FF9A00"/>
<path d="M41.4729 14.4828H13.5595C12.0031 14.4828 10.7415 15.7445 10.7415 17.3008V37.018C10.7415 38.5743 12.0031 39.836 13.5595 39.836H17.3077C17.2156 39.2835 17.1696 38.7217 17.1696 38.1507C17.1696 37.5061 17.234 36.8798 17.3445 36.2628H14.3239V26.8233H40.7178V36.2536H37.6879C37.7984 36.8706 37.8629 37.4969 37.8629 38.1415C37.8629 38.7125 37.8168 39.2743 37.7247 39.8268H41.4729C43.0293 39.8268 44.291 38.5651 44.291 37.0088V17.3008C44.291 15.7445 43.0293 14.4828 41.4729 14.4828ZM40.7178 21.0122H14.3239V18.056H40.7178V21.0122Z" fill="#404040"/>
<path d="M27.5207 30.903C23.5239 30.903 20.2822 34.1446 20.2822 38.1415C20.2822 42.1383 23.5239 45.38 27.5207 45.38C31.5176 45.38 34.7593 42.1383 34.7593 38.1415C34.7593 34.1446 31.5176 30.903 27.5207 30.903ZM29.602 40.9964C29.2889 41.3831 28.8745 41.641 28.3956 41.7699C28.1838 41.8252 28.0917 41.9357 28.1009 42.1567C28.1101 42.3685 28.1009 42.5804 28.1009 42.8014C28.1009 42.9948 27.9996 43.0961 27.8154 43.0961C27.5852 43.1053 27.355 43.1053 27.1247 43.0961C26.9221 43.0961 26.83 42.9764 26.83 42.783C26.83 42.6264 26.83 42.4698 26.83 42.3133C26.83 41.9725 26.8116 41.9541 26.4801 41.8989C26.0565 41.8344 25.642 41.7331 25.2553 41.5489C24.9513 41.4016 24.9145 41.3279 25.0066 41.0056C25.0711 40.7661 25.1355 40.5267 25.2092 40.2964C25.2921 40.0202 25.3658 39.9925 25.6236 40.1215C26.0565 40.3425 26.5077 40.4714 26.9866 40.5267C27.2905 40.5635 27.5944 40.5359 27.8799 40.407C28.414 40.1767 28.4969 39.5597 28.0457 39.1913C27.8891 39.0624 27.7234 38.9703 27.5392 38.8966C27.0695 38.694 26.5814 38.5375 26.1486 38.2704C25.4302 37.8468 24.979 37.2574 25.0342 36.3825C25.0895 35.3971 25.6513 34.7893 26.5538 34.4577C26.9221 34.3196 26.9313 34.3288 26.9313 33.942C26.9313 33.8131 26.9313 33.675 26.9313 33.546C26.9406 33.2513 26.9866 33.2053 27.2813 33.1961C27.3734 33.1961 27.4655 33.1961 27.5484 33.1961C28.1746 33.1961 28.1746 33.1961 28.1746 33.8223C28.1746 34.2644 28.1746 34.2644 28.6167 34.3288C28.9482 34.3841 29.2705 34.4762 29.5836 34.6143C29.7586 34.688 29.8231 34.8077 29.7678 34.9919C29.6941 35.259 29.6205 35.5352 29.5284 35.7931C29.4455 36.0417 29.3626 36.0786 29.1232 35.9681C28.6351 35.7286 28.1286 35.6365 27.5944 35.6642C27.4563 35.6734 27.3181 35.6918 27.1892 35.7471C26.7287 35.9497 26.6459 36.4654 27.0419 36.7785C27.2445 36.9351 27.4655 37.0548 27.7049 37.1561C28.1193 37.3218 28.5246 37.4876 28.9206 37.7086C30.1362 38.3809 30.4769 39.9373 29.602 40.9964Z" fill="#FF9A00"/>
</g>
<defs>
<clipPath id="clip0_135_202">
<rect width="45" height="45" fill="white" transform="translate(0 0.380005)"/>
</clipPath>
</defs>
</svg>
