<svg width="20" height="17" viewBox="0 0 20 17" fill="none" xmlns="http://www.w3.org/2000/svg">
<g clip-path="url(#clip0_135_283)">
<path d="M3.96527 10.04H13.5986C14.5534 10.04 15.4691 9.66071 16.1442 8.98557C16.8193 8.31044 17.1986 7.39477 17.1986 6.43999C17.1986 5.48521 16.8193 4.56954 16.1442 3.89441C15.4691 3.21927 14.5534 2.83999 13.5986 2.83999H9.99994V1.23999H13.5999C14.2828 1.23999 14.959 1.37449 15.5899 1.63582C16.2208 1.89714 16.794 2.28017 17.2769 2.76304C17.7598 3.2459 18.1428 3.81914 18.4041 4.45004C18.6654 5.08093 18.7999 5.75712 18.7999 6.43999C18.7999 7.12286 18.6654 7.79905 18.4041 8.42994C18.1428 9.06084 17.7598 9.63408 17.2769 10.1169C16.794 10.5998 16.2208 10.9828 15.5899 11.2442C14.959 11.5055 14.2828 11.64 13.5999 11.64H3.96394L7.23061 14.8253L6.11194 15.9707L0.853271 10.84L6.11327 5.70932L7.23061 6.85466L3.96527 10.04Z" fill="black" fill-opacity="0.55"/>
</g>
<defs>
<clipPath id="clip0_135_283">
<rect width="20" height="16" fill="white" transform="translate(0 0.440002)"/>
</clipPath>
</defs>
</svg>
