<svg width="10" height="18" viewBox="0 0 10 18" fill="none" xmlns="http://www.w3.org/2000/svg">
<path d="M7.31322 9.55322L1.251 2.36965C0.916825 1.97358 0.966332 1.37949 1.36239 1.04531C1.75846 0.711137 2.35255 0.760644 2.68673 1.15671L8.74895 8.34028C9.08312 8.73634 9.03362 9.33043 8.63756 9.66461C8.24149 10.0013 7.6474 9.95176 7.31322 9.55322Z" fill="white"/>
<path d="M8.95195 10.1523L2.39712 16.8903C2.03572 17.2616 1.43915 17.2715 1.06784 16.9076C0.696533 16.5462 0.686631 15.9496 1.05051 15.5783L7.60534 8.8403C7.96674 8.46899 8.56331 8.45909 8.93462 8.82297C9.30593 9.18438 9.31335 9.78095 8.95195 10.1523Z" fill="white"/>
</svg>
