<svg width="11" height="11" viewBox="0 0 11 11" fill="none" xmlns="http://www.w3.org/2000/svg">
<path fill-rule="evenodd" clip-rule="evenodd" d="M8.41806 7.02073L10.83 9.43267L10.1229 10.1399L7.71095 7.72788C6.9873 8.29905 6.07348 8.63993 5.08005 8.63993C2.73286 8.63993 0.830078 6.73705 0.830078 4.38983C0.830078 2.04259 2.73286 0.140015 5.08005 0.140015C7.42722 0.140015 9.33 2.04259 9.33 4.38983C9.33 5.38324 8.98917 6.29707 8.41806 7.02073ZM5.08005 1.13988C3.28511 1.13988 1.83004 2.59483 1.83004 4.38983C1.83004 6.18481 3.28511 7.63976 5.08005 7.63976C6.87497 7.63976 8.33004 6.18481 8.33004 4.38983C8.33004 2.59483 6.87497 1.13988 5.08005 1.13988Z" fill="black"/>
</svg>
