<svg width="20" height="21" viewBox="0 0 20 21" fill="none" xmlns="http://www.w3.org/2000/svg">
<g clip-path="url(#clip0_135_269)">
<path d="M10.587 15.145H7.01005C6.91669 15.4835 6.75169 15.7981 6.52624 16.0673C6.30078 16.3366 6.02011 16.5542 5.70324 16.7056C5.38636 16.857 5.04066 16.9385 4.68954 16.9447C4.33841 16.9509 3.99006 16.8816 3.66804 16.7415C3.34601 16.6014 3.05785 16.3938 2.82303 16.1326C2.58822 15.8715 2.41223 15.563 2.30699 15.228C2.20174 14.8929 2.16969 14.5392 2.21301 14.1907C2.25632 13.8422 2.37399 13.5071 2.55805 13.208L0.998047 13.205L1.00005 12.005L4.60005 12.013V12.038H4.64805C5.81505 12.038 6.79105 12.853 7.03805 13.945H10.558C10.6605 13.4965 10.887 13.0858 11.2116 12.7597C11.5363 12.4337 11.946 12.2054 12.394 12.101L14.817 5.74899C14.8517 5.65817 14.8638 5.5603 14.8523 5.46378C14.8407 5.36727 14.8059 5.275 14.7508 5.19491C14.6957 5.11483 14.622 5.04933 14.536 5.00405C14.45 4.95878 14.3543 4.93507 14.257 4.93499H4.60005V3.73499H14.258C14.546 3.73499 14.8298 3.80409 15.0855 3.93647C15.3412 4.06885 15.5615 4.26066 15.7277 4.49578C15.894 4.7309 16.0014 5.00248 16.0409 5.28771C16.0805 5.57294 16.051 5.86349 15.955 6.13499H17.632L19.041 10.36L17.014 15.147L15.313 15.14C15.1704 15.6569 14.8623 16.1128 14.4359 16.4379C14.0094 16.763 13.4882 16.9393 12.9519 16.9399C12.4157 16.9404 11.8941 16.7652 11.467 16.441C11.0398 16.1168 10.7308 15.6616 10.587 15.145ZM15.338 13.94L16.221 13.944L17.759 10.31L16.768 7.33499H15.498L13.663 12.144C14.497 12.397 15.143 13.083 15.338 13.94ZM7.00005 6.12999V7.32999H1.00005V6.12999H7.00005ZM4.60005 8.56199V9.76199H2.20005V8.56199H4.60005ZM4.64905 15.74C4.98083 15.74 5.29903 15.6082 5.53364 15.3736C5.76825 15.139 5.90005 14.8208 5.90005 14.489C5.90005 14.1572 5.76825 13.839 5.53364 13.6044C5.29903 13.3698 4.98083 13.238 4.64905 13.238C4.31726 13.238 3.99906 13.3698 3.76446 13.6044C3.52985 13.839 3.39805 14.1572 3.39805 14.489C3.39805 14.8208 3.52985 15.139 3.76446 15.3736C3.99906 15.6082 4.31726 15.74 4.64905 15.74ZM12.949 15.74C13.2808 15.74 13.599 15.6082 13.8336 15.3736C14.0682 15.139 14.2 14.8208 14.2 14.489C14.2 14.1572 14.0682 13.839 13.8336 13.6044C13.599 13.3698 13.2808 13.238 12.949 13.238C12.6173 13.238 12.2991 13.3698 12.0645 13.6044C11.8298 13.839 11.698 14.1572 11.698 14.489C11.698 14.8208 11.8298 15.139 12.0645 15.3736C12.2991 15.6082 12.6173 15.74 12.949 15.74Z" fill="#00B75B"/>
</g>
<defs>
<clipPath id="clip0_135_269">
<rect width="20" height="20" fill="white" transform="translate(0 0.339996)"/>
</clipPath>
</defs>
</svg>
