<svg width="14" height="14" viewBox="0 0 14 14" fill="none" xmlns="http://www.w3.org/2000/svg">
<path d="M7.36743 1.35625L8.89087 4.47929C8.93319 4.58086 9.00301 4.66761 9.10034 4.73955C9.19767 4.81149 9.30135 4.85592 9.41138 4.87285H9.42407L12.8137 5.38066C12.9915 5.40605 13.1396 5.48645 13.2581 5.62187C13.3765 5.75729 13.4358 5.9181 13.4358 6.10429C13.4358 6.20586 13.4146 6.30319 13.3723 6.39629C13.33 6.48939 13.275 6.56979 13.2073 6.6375L10.7698 9.03691C10.7021 9.10462 10.6492 9.18079 10.6111 9.26543C10.573 9.35006 10.554 9.44316 10.554 9.54472C10.554 9.57011 10.5561 9.5955 10.5603 9.6209C10.5645 9.64629 10.5667 9.67168 10.5667 9.69707L11.1633 13.0994C11.1633 13.1248 11.1654 13.1481 11.1697 13.1692C11.1739 13.1904 11.176 13.2094 11.176 13.2264C11.176 13.4295 11.1062 13.6009 10.9666 13.7405C10.8269 13.8802 10.6555 13.95 10.4524 13.95C10.3931 13.95 10.336 13.9436 10.281 13.931C10.226 13.9183 10.1731 13.895 10.1223 13.8611V13.8738L7.08813 12.2488C7.04582 12.2234 6.99504 12.2023 6.93579 12.1853C6.87655 12.1684 6.8173 12.16 6.75806 12.16C6.69035 12.16 6.62899 12.1684 6.57397 12.1853C6.51896 12.2023 6.46606 12.2234 6.41528 12.2488L3.35571 13.8611C3.3134 13.8865 3.26261 13.9077 3.20337 13.9246C3.14412 13.9415 3.08488 13.95 3.02563 13.95C2.83097 13.95 2.66382 13.8802 2.52417 13.7405C2.38452 13.6009 2.3147 13.4337 2.3147 13.2391C2.3147 13.2137 2.3147 13.1883 2.3147 13.1629C2.3147 13.1375 2.31893 13.1163 2.32739 13.0994L2.91138 9.69707C2.91138 9.68014 2.91349 9.6611 2.91772 9.63994C2.92196 9.61878 2.92407 9.59974 2.92407 9.58281C2.92407 9.48125 2.90503 9.38392 2.86694 9.29082C2.82886 9.19772 2.78019 9.11731 2.72095 9.04961L0.219971 6.6248C0.152262 6.56556 0.0993652 6.48939 0.0612793 6.39629C0.0231934 6.30319 0.00415039 6.20586 0.00415039 6.10429C0.00415039 5.92656 0.0612793 5.76998 0.175537 5.63457C0.289795 5.49915 0.435791 5.41452 0.613525 5.38066L4.00317 4.87285C4.13013 4.85592 4.24015 4.81149 4.33325 4.73955C4.42635 4.66761 4.49406 4.58086 4.53638 4.47929L6.05981 1.35625C6.11906 1.23776 6.20793 1.14043 6.32642 1.06425C6.44491 0.988083 6.57186 0.949997 6.70728 0.949997C6.85116 0.949997 6.98234 0.988083 7.10083 1.06425C7.21932 1.14043 7.30819 1.23353 7.36743 1.34355V1.35625Z" fill="#FFD85A"/>
</svg>
