<svg width="14" height="15" viewBox="0 0 14 15" fill="none" xmlns="http://www.w3.org/2000/svg">
<rect y="0.720215" width="14" height="14" rx="7" fill="white"/>
<g clip-path="url(#clip0_135_610)">
<path d="M7 0.720215C6.03385 0.720215 5.12695 0.902507 4.2793 1.26709C3.43164 1.64079 2.69108 2.14437 2.05762 2.77783C1.42415 3.4113 0.920573 4.15186 0.546875 4.99951C0.182292 5.84717 0 6.75407 0 7.72021C0 8.68636 0.182292 9.59326 0.546875 10.4409C0.920573 11.2886 1.42415 12.0291 2.05762 12.6626C2.69108 13.2961 3.43164 13.7996 4.2793 14.1733C5.12695 14.5379 6.03385 14.7202 7 14.7202C7.96615 14.7202 8.87305 14.5379 9.7207 14.1733C10.5684 13.7996 11.3089 13.2961 11.9424 12.6626C12.5758 12.0291 13.0794 11.2886 13.4531 10.4409C13.8177 9.59326 14 8.68636 14 7.72021C14 6.75407 13.8177 5.84717 13.4531 4.99951C13.0794 4.15186 12.5758 3.4113 11.9424 2.77783C11.3089 2.14437 10.5684 1.64079 9.7207 1.26709C8.87305 0.902507 7.96615 0.720215 7 0.720215ZM10.541 6.22998L6.75391 10.0308C6.69922 10.0854 6.63542 10.1265 6.5625 10.1538C6.48958 10.1812 6.41667 10.1948 6.34375 10.1948C6.27083 10.1948 6.19792 10.1812 6.125 10.1538C6.05208 10.1265 5.98828 10.0854 5.93359 10.0308L4.0332 8.13037C3.92383 8.021 3.86914 7.88428 3.86914 7.72021C3.86914 7.55615 3.92383 7.41943 4.0332 7.31006C4.15169 7.19157 4.29069 7.13232 4.4502 7.13232C4.6097 7.13232 4.74414 7.19157 4.85352 7.31006L6.34375 8.78662L9.7207 5.40967C9.83919 5.30029 9.97819 5.24561 10.1377 5.24561C10.2972 5.24561 10.4316 5.30029 10.541 5.40967C10.6595 5.52816 10.7188 5.66715 10.7188 5.82666C10.7188 5.98617 10.6595 6.12061 10.541 6.22998Z" fill="#00D864"/>
</g>
<defs>
<clipPath id="clip0_135_610">
<rect width="14" height="14" fill="white" transform="matrix(1 0 0 -1 0 14.7202)"/>
</clipPath>
</defs>
</svg>
