<svg width="39" height="23" viewBox="0 0 39 23" fill="none" xmlns="http://www.w3.org/2000/svg">
<g clip-path="url(#clip0_135_396)">
<path fill-rule="evenodd" clip-rule="evenodd" d="M3.03184 0.665344H35.9542C37.3517 0.665344 38.486 1.79963 38.486 3.19718V19.2368C38.486 20.6344 37.3517 21.7687 35.9542 21.7687H3.03184C1.63429 21.7687 0.5 20.6344 0.5 19.2368V3.19718C0.5 1.79963 1.63429 0.665344 3.03184 0.665344Z" fill="#123CBB"/>
<path fill-rule="evenodd" clip-rule="evenodd" d="M7.31406 7.55788L7.25244 7.67551V7.79034C7.81818 7.88276 8.98328 8.25526 9.36698 8.53813C9.64425 8.73978 9.68626 9.11787 9.78988 9.52678L10.9746 14.1059C11.067 14.47 11.1566 14.9069 11.2743 15.2514L13.3776 15.2626C13.5512 14.9265 14.8256 11.8206 14.9964 11.4061L16.2035 8.51852C16.2875 8.30847 16.5648 7.73713 16.5956 7.55788L14.5203 7.55508L12.459 12.7476C12.3581 12.588 11.7252 8.94983 11.6187 8.4093C11.4395 7.48226 10.8401 7.55508 9.90191 7.55508C9.62464 7.55508 9.34457 7.55228 9.0589 7.54668C8.78163 7.54388 8.50436 7.54108 8.22709 7.54108C7.91901 7.54108 7.61093 7.54668 7.31406 7.55788Z" fill="white"/>
<path fill-rule="evenodd" clip-rule="evenodd" d="M23.2753 7.41785C23.2725 7.41785 23.2697 7.41785 23.2641 7.41785C22.1102 7.42345 20.7574 7.87436 20.2309 8.94143C19.5924 10.227 20.2197 11.2688 21.4016 11.899C21.8301 12.123 22.6143 12.4423 22.7319 12.8484C22.942 13.5598 21.987 13.7951 21.3876 13.7671C20.2505 13.7166 20.1889 13.4814 19.5391 13.2909C19.4663 13.4198 19.175 14.7921 19.175 14.9826C20.6454 15.6043 23.3061 15.6323 24.39 14.1788C24.7092 13.7502 24.9529 13.0389 24.8101 12.3359C24.5496 11.0644 23.1296 10.7507 22.3763 10.1849C21.5781 9.58279 22.3707 8.77339 23.9783 9.10947C24.3452 9.18509 24.5636 9.30272 24.8745 9.39235L25.219 7.74553C24.502 7.56068 24.1435 7.42065 23.3117 7.41785H23.2753Z" fill="white"/>
<path fill-rule="evenodd" clip-rule="evenodd" d="M15.8086 15.2571L17.7999 15.2599L19.4495 7.55792L17.4638 7.55511L15.8086 15.2571Z" fill="white"/>
<path fill-rule="evenodd" clip-rule="evenodd" d="M28.6219 7.55508C28.0562 7.56068 27.8489 7.82675 27.6697 8.24966C27.4876 8.67256 24.7681 15.1282 24.7485 15.2626H26.8323L27.2552 14.1115L29.7842 14.1143C29.8542 14.2992 29.8934 14.5877 29.9354 14.7865C30.0531 15.3354 29.9775 15.2682 30.2519 15.2626C30.4816 15.2598 30.7112 15.2626 30.9409 15.2626C31.2602 15.2682 31.5767 15.271 31.8875 15.257V15.2066L30.2687 7.56068C30.0727 7.54388 29.8542 7.54108 29.6274 7.54108C29.2857 7.54108 28.9272 7.55228 28.6219 7.55508ZM27.8321 12.5207C27.8769 12.3611 28.7956 9.79845 28.8712 9.68922L29.4537 12.5291L27.8321 12.5207Z" fill="white"/>
</g>
<defs>
<clipPath id="clip0_135_396">
<rect width="38" height="21.5094" fill="white" transform="translate(0.5 0.665344)"/>
</clipPath>
</defs>
</svg>
